<?xml version="1.0" encoding="utf-8"?>
<svg viewBox="134.1282 108.1642 586.4704 99.153" width="586.47" height="99.153"
	xmlns="http://www.w3.org/2000/svg">
	<g transform="matrix(1.0000000000000002, 0, 0, 1.0000000000000002, 131.2995816752125, 108.16418177623348)">
		<path fill="#010101" d="M134.849,52.14h11.186c0.682-1.363,1.317-2.888,1.909-4.568l3.548,0.443&#10;&#9;&#9;c-0.479,1.477-0.989,2.854-1.535,4.125h16.266v3.139h-17.835c-0.773,1.363-1.603,2.613-2.489,3.75&#10;&#9;&#9;c-0.887,1.25-1.863,2.445-2.933,3.58V79.49h-3.41V65.747c-0.796,0.705-1.637,1.375-2.524,2.012l-2.182-2.829&#10;&#9;&#9;c3.296-2.435,6.047-5.07,8.252-7.912c0.433-0.523,0.841-1.103,1.229-1.738h-9.48V52.14L134.849,52.14z M145.352,63.938h8.253&#10;&#9;&#9;v-6.955h3.41v6.955h7.843v3.002h-7.843v8.389h9.207v3.137h-22.371v-3.137h9.753V66.94h-8.253L145.352,63.938L145.352,63.938z"/>
		<path fill="#010101" d="M172.852,48.798h11.594v1.705h4.161c-0.409-0.817-0.841-1.602-1.296-2.354l2.934-0.443&#10;&#9;&#9;c0.408,0.842,0.817,1.773,1.228,2.797h4.161v2.592h-1.398l-1.125,4.435h3.273v-9.822h2.865v9.822h5.797v2.729h-5.797&#10;&#9;&#9;c0.021,3.138,0.125,5.82,0.307,8.048c0.955-1.773,1.808-3.773,2.558-6.003l2.66,1.06c-1.683,4.068-3.137,7.022-4.364,8.865&#10;&#9;&#9;c-0.092,0.137-0.171,0.262-0.239,0.375c0.159,0.817,0.353,1.559,0.58,2.217c0.477,1.297,0.83,1.943,1.057,1.943&#10;&#9;&#9;c0.318,0,0.704-1.728,1.159-5.185l2.49,1.877c-0.683,3.113-1.319,5-1.91,5.66c-0.455,0.523-1.001,0.785-1.637,0.785&#10;&#9;&#9;c-0.909,0-1.83-0.898-2.763-2.695c-0.317-0.59-0.625-1.272-0.92-2.045c-1.114,1.295-2.49,2.693-4.126,4.193l-2.285-2.013&#10;&#9;&#9;c0.75-0.637,1.433-1.262,2.046-1.875h-6.274v1.705h-2.729V62.099h9.821v12.582c1-1.021,1.887-2.013,2.66-2.968&#10;&#9;&#9;c-0.091-0.477-0.182-0.987-0.273-1.532c-0.432-2.82-0.659-6.127-0.682-9.925h-13.299v19.507h-2.729v-5.765&#10;&#9;&#9;c-2.022,0.842-4.318,1.672-6.888,2.49l-0.75-3.139c0.5-0.113,1-0.216,1.5-0.308V51.526h-1.364v-2.729H172.852z M176.944,55.755&#10;&#9;&#9;h3.41v-4.229h-3.41V55.755z M176.944,63.12h3.41v-4.637h-3.41V63.12z M176.944,72.396c1.16-0.316,2.297-0.703,3.41-1.158v-5.389&#10;&#9;&#9;h-3.41V72.396z M183.083,57.528h3.272l-0.817-4.435h-1.364v-1.567h-1.091V57.528z M187.583,67.554h4.364V64.69h-4.364V67.554z&#10;&#9;&#9; M187.583,72.874h4.364v-3.002h-4.364V72.874z M188.812,57.528h1.841l1.125-4.435h-3.818L188.812,57.528z M202.315,49.89&#10;&#9;&#9;c0.888,1.637,1.66,3.387,2.319,5.252l-2.558,1.157c-0.659-2.09-1.41-3.955-2.25-5.592L202.315,49.89z"/>
		<path fill="#010101" d="M216.481,55.55h21.757v2.865h-7.264c-0.887,0.75-1.819,1.42-2.796,2.012c1.228,1.5,2.114,3.023,2.66,4.57&#10;&#9;&#9;c2.569-1.137,4.99-2.809,7.263-5.014l2.49,2.455c-1.433,1.297-2.967,2.422-4.604,3.377c0.771,1.817,1.705,3.49,2.796,5.012&#10;&#9;&#9;c1.092,1.455,2.604,3.025,4.535,4.707l-2.283,2.863c-2.185-2.045-3.935-4.113-5.252-6.205c-0.955-1.455-1.797-3.115-2.524-4.979&#10;&#9;&#9;c-0.5,0.25-1.012,0.465-1.534,0.646c0.318,1.479,0.478,2.945,0.478,4.399c0,2.66-0.409,4.558-1.229,5.693&#10;&#9;&#9;c-0.796,1.205-3.263,1.809-7.399,1.809l-1.125-3.377c0.113,0.113,0.75,0.173,1.909,0.173c1.888,0,3.059-0.229,3.514-0.685&#10;&#9;&#9;c0.613-0.658,0.92-1.863,0.92-3.613c0-0.5-0.034-1-0.103-1.502c-1.956,1.548-3.739,2.707-5.354,3.479&#10;&#9;&#9;c-2.546,1.342-5.752,2.637-9.617,3.889l-1.773-3.035c3.819-1.022,7.14-2.229,9.958-3.614c2.342-1.16,4.388-2.523,6.139-4.093&#10;&#9;&#9;c-0.068-0.25-0.137-0.512-0.205-0.784c-0.091-0.318-0.193-0.636-0.308-0.955c-1.909,1.364-3.614,2.377-5.114,3.034&#10;&#9;&#9;c-2.25,1.048-5.081,2.06-8.491,3.035l-1.705-2.897c3.364-0.771,6.297-1.705,8.798-2.797c1.955-0.841,3.684-1.828,5.185-2.968&#10;&#9;&#9;c-0.25-0.432-0.513-0.84-0.785-1.227c-3.047,1.318-6.57,2.434-10.571,3.342l-1.808-2.934c4.342-0.818,7.74-1.67,10.195-2.558&#10;&#9;&#9;c1.092-0.387,2.104-0.807,3.035-1.262h-9.787L216.481,55.55L216.481,55.55z M227.7,47.706c0.432,0.797,0.841,1.66,1.228,2.592&#10;&#9;&#9;h13.504v7.095h-3.138V53.3h-23.871v4.093h-3.137v-7.095h12.924c-0.388-0.703-0.808-1.375-1.263-2.012L227.7,47.706z"/>
		<path fill="#010101" d="M267.34,47.706c0.499,0.818,0.978,1.729,1.433,2.729h12.958v2.729h-26.054v9.412&#10;&#9;&#9;c0,2.592-0.205,5.332-0.613,8.219c-0.546,2.933-1.433,5.832-2.66,8.695l-2.864-2.557c1.16-2.273,1.955-4.66,2.388-7.162&#10;&#9;&#9;c0.318-2.592,0.478-4.99,0.478-7.195V50.435h12.788c-0.433-0.771-0.921-1.5-1.466-2.183L267.34,47.706z M256.632,55.344h8.252&#10;&#9;&#9;v3.104c-1.318,1.957-2.5,3.559-3.546,4.809h4.023c-0.092,3.185-0.454,5.74-1.092,7.675c-0.272,0.907-0.625,1.75-1.057,2.522&#10;&#9;&#9;c1.204,0.955,2.671,1.658,4.397,2.113c1.705,0.432,4.093,0.647,7.162,0.647c2.228,0,4.546-0.092,6.956-0.272l-0.646,3.41&#10;&#9;&#9;c-7.98,0-13.027-0.353-15.143-1.058c-1.455-0.362-2.943-1.16-4.468-2.387c-1,1.113-2.353,2.262-4.058,3.443l-1.876-3.273&#10;&#9;&#9;c1.501-0.795,2.659-1.637,3.479-2.522c-1.045-1.343-1.932-3.023-2.66-5.048l2.729-1.022c0.522,1.342,1.112,2.49,1.772,3.445&#10;&#9;&#9;c0.113-0.229,0.217-0.455,0.308-0.683c0.41-1.047,0.682-2.479,0.817-4.297h-5.114v-2.32c1.522-1.705,2.909-3.557,4.159-5.559&#10;&#9;&#9;h-4.397L256.632,55.344L256.632,55.344z M279.037,54.392l1.604,2.727c-1.592,0.57-3.41,0.99-5.457,1.262v4.06h6.002v2.729h-6.002&#10;&#9;&#9;v5.217h5.32v2.695H266.59v-2.695h5.32v-5.217h-5.865V62.44h5.865v-3.685c-1.41,0.093-2.898,0.138-4.468,0.138l-0.988-2.898&#10;&#9;&#9;C271.41,55.993,275.604,55.46,279.037,54.392z"/>
		<path fill="#010101" d="M290.679,48.866h24.281c-0.818,3.865-1.685,7.117-2.593,9.754h6.515c-1.41,6.229-3.457,10.877-6.14,13.947&#10;&#9;&#9;c2.25,1.545,4.718,2.83,7.4,3.854l-1.809,3.479c-3.41-1.502-6.253-3.047-8.525-4.64c-2.592,1.933-5.877,3.479-9.854,4.64&#10;&#9;&#9;l-2.593-3.41c4.023-0.979,7.185-2.16,9.48-3.547c-3.023-2.818-5.389-6.185-7.094-10.094c-0.773,3.387-1.729,6.184-2.864,8.389&#10;&#9;&#9;c-1.319,2.568-3.376,5.272-6.173,8.115l-2.898-2.523c3.66-3.432,6.275-7.229,7.844-11.389c1.297-3.502,1.943-7.185,1.943-11.049&#10;&#9;&#9;v-2.39h-6.922L290.679,48.866L290.679,48.866z M301.182,52.003v2.39c0,4.137,1.604,8.184,4.811,12.139&#10;&#9;&#9;c1.182,1.434,2.487,2.74,3.921,3.922c1.863-2.068,3.375-5,4.535-8.797h-6.752c0.863-2.229,1.795-5.445,2.795-9.652L301.182,52.003&#10;&#9;&#9;L301.182,52.003z"/>
		<path fill="#010101" d="M336.322,47.979l1.09,2.627c-1.182,0.25-3.114,0.5-5.797,0.75l0.138,1.602h5.252v2.32h-5.115l0.102,1.84&#10;&#9;&#9;h5.015v2.457h-4.843l0.136,2.08h20.358l0.17-2.08h-4.5v-2.457h4.672l0.136-1.705h-4.808v-2.318h5.013l0.137-1.842h-5.422v-2.762&#10;&#9;&#9;h8.524l-0.922,13.164h2.285v6.785h-3.137v-4.092h-24.553v4.092h-3.14v-6.785h2.185l-0.75-12.688&#10;&#9;&#9;C331.001,48.854,333.593,48.524,336.322,47.979z M332.911,66.259h19.847v2.558c-2.343,1.067-5.023,2.035-8.047,2.897h13.026v2.729&#10;&#9;&#9;h-13.231v2.934c-0.045,0.728-0.25,1.283-0.613,1.67c-0.568,0.568-1.229,0.854-1.979,0.854h-4.944l-0.646-2.729&#10;&#9;&#9;c1.203,0.045,2.488,0.068,3.854,0.068c0.703,0,1.057-0.25,1.057-0.75v-2.047H327.73v-2.729h13.504v-1.227&#10;&#9;&#9;c1.979-0.432,4.06-1.023,6.24-1.773h-14.562L332.911,66.259L332.911,66.259z M345.29,47.979l2.08,1.297&#10;&#9;&#9;c-0.729,0.75-1.434,1.375-2.114,1.875c0.547,0.455,1.067,0.887,1.567,1.295l-1.807,1.809c-0.545-0.547-1.183-1.112-1.91-1.705&#10;&#9;&#9;c-1.182,0.683-2.58,1.343-4.193,1.978l-1.364-2.25c1.205-0.342,2.342-0.771,3.41-1.295c-0.728-0.5-1.5-1.013-2.318-1.535&#10;&#9;&#9;l1.637-1.604c1.023,0.615,1.988,1.229,2.898,1.843C343.902,49.185,344.607,48.616,345.29,47.979z M345.698,54.392l2.08,1.295&#10;&#9;&#9;c-0.863,0.91-1.692,1.672-2.488,2.285c0.703,0.545,1.353,1.067,1.943,1.567l-1.809,1.808c-0.638-0.636-1.388-1.296-2.25-1.978&#10;&#9;&#9;c-1.113,0.637-2.398,1.25-3.854,1.842l-1.363-2.252c1.091-0.317,2.113-0.715,3.068-1.192c-0.682-0.455-1.387-0.908-2.113-1.363&#10;&#9;&#9;l1.638-1.604c0.955,0.568,1.83,1.138,2.625,1.705C344.062,55.892,344.904,55.187,345.698,54.392z"/>
		<path fill="#010101" d="M370.948,48.491l3.238,1.297c-0.455,1.59-0.898,2.967-1.33,4.125h6.924v-5.934h3.547v5.934h12.14v3.137&#10;&#9;&#9;h-12.14v7.3h10.912v3h-10.912v8.116h13.367v3.138h-31.373v-3.138h14.459v-8.116h-11.049v-3h11.049v-7.3h-8.149&#10;&#9;&#9;c-0.068,0.115-0.125,0.229-0.172,0.343c-0.75,1.752-2.058,3.797-3.92,6.139l-2.765-2.422c1.592-1.933,2.887-3.83,3.89-5.695&#10;&#9;&#9;C369.55,53.505,370.312,51.196,370.948,48.491z"/>
		<path fill="#010101" d="M410.962,54.526l0.817,2.899c-1.91,1.068-4.297,2.013-7.16,2.83l-1.297-3.034&#10;&#9;&#9;C405.823,56.653,408.37,55.755,410.962,54.526z M418.5,47.571l2.829,1.09c-0.407,0.615-0.772,1.16-1.092,1.637h13.642v2.32&#10;&#9;&#9;c-1.228,1.342-2.705,2.523-4.433,3.547l-2.115-1.91c0.728-0.342,1.546-0.842,2.455-1.5h-4.637c-0.547,0.908-1.07,1.705-1.57,2.388&#10;&#9;&#9;c3.91,0.907,7.525,1.955,10.847,3.137l-1.638,2.522c-0.387-0.157-0.772-0.307-1.159-0.442V74.51h-7.095&#10;&#9;&#9;c3.343,0.593,6.82,1.479,10.437,2.66l-1.16,2.865c-3.5-1.342-7.16-2.354-10.98-3.035l1.263-2.49h-9.207l1.807,2.08&#10;&#9;&#9;c-3.682,1.5-7.365,2.604-11.049,3.31l-1.363-2.865c3.955-0.545,7.412-1.387,10.367-2.522h-7.299V60.052h6.549l-1.434-1.875&#10;&#9;&#9;c3.047-0.75,5.399-1.784,7.061-3.104c0.771-0.613,1.478-1.387,2.113-2.318h-3.58c-0.955,0.908-2.387,1.908-4.297,3l-2.388-2.114&#10;&#9;&#9;c1.863-0.933,3.343-1.853,4.435-2.763C416.872,49.969,417.771,48.866,418.5,47.571z M406.359,48.39&#10;&#9;&#9;c2.023,0.75,3.877,1.647,5.56,2.692l-1.91,2.898c-1.728-1.318-3.5-2.363-5.318-3.138L406.359,48.39z M410.486,64.075h18.006V62.37&#10;&#9;&#9;h-18.006V64.075z M410.486,68.032h18.006v-1.773h-18.006V68.032z M428.491,72.192v-1.979h-18.006v1.979H428.491z M416.113,60.052&#10;&#9;&#9;h14.767c-3.07-1.159-6.185-2.114-9.345-2.864C420.148,58.302,418.339,59.257,416.113,60.052z"/>
		<path fill="#010101" d="M456.533,49.344v22.337c0.523-0.158,1-0.318,1.435-0.479v3.035c-4.435,1.615-9.537,3.092-15.313,4.434&#10;&#9;&#9;l-0.92-3c0.771-0.16,1.521-0.317,2.25-0.479V49.344H456.533z M447.122,56.983h6.275v-4.912h-6.275V56.983z M447.122,64.894h6.275&#10;&#9;&#9;V59.71h-6.275V64.894z M447.122,74.442c2.205-0.545,4.297-1.125,6.275-1.738v-5.082h-6.275V74.442z M467.856,79.626&#10;&#9;&#9;c-0.797,0-1.705-0.045-2.729-0.137l-0.613-3.547c1.092,0.182,2.217,0.272,3.375,0.272c0.979,0,1.535-0.67,1.672-2.012&#10;&#9;&#9;c0.182-1.682,0.295-7.172,0.342-16.471h-3.99c-0.137,4.547-0.672,8.354-1.604,11.424c-1.068,3.5-3.104,7.08-6.104,10.742&#10;&#9;&#9;l-2.694-2.354c2.752-2.91,4.694-6.035,5.832-9.379c0.862-2.387,1.342-5.865,1.432-10.434h-5.217v-3.14h5.252v-6.614h3.137v6.614&#10;&#9;&#9;h7.094c0,11.664-0.137,18.574-0.409,20.734c-0.183,1.682-0.558,2.785-1.125,3.309C470.823,79.296,469.606,79.626,467.856,79.626z"/>
		<path fill="#010101" d="M481.103,49.685h13.504v-1.979h3.273v1.979h13.504v2.864H497.88v1.568h12.004v7.094H497.88v1.568h11.866&#10;&#9;&#9;v4.434h2.865v2.728h-2.865v4.434H497.88v2.115c0,1.09-0.273,1.863-0.818,2.318c-0.523,0.455-1.479,0.682-2.865,0.682h-3.854&#10;&#9;&#9;l-0.683-3c1.455,0.137,2.648,0.203,3.58,0.203c0.91,0,1.365-0.238,1.365-0.715v-1.604h-12.551v-2.592h12.551V69.94h-14.869v-2.728&#10;&#9;&#9;h14.869v-1.842h-12.551V62.78h12.551v-1.568H483.01v-7.094h11.596V52.55h-13.504L481.103,49.685L481.103,49.685z M494.606,58.755&#10;&#9;&#9;v-2.182h-8.322v2.182H494.606z M506.61,58.755v-2.182h-8.729v2.182H506.61z M497.88,65.372v1.842h8.864v-1.842H497.88z&#10;&#9;&#9; M497.88,69.94v1.842h8.864V69.94H497.88z"/>
		<path fill="#010101" d="M519.343,49.14h13.369v2.692c-1.39,2.273-3.015,4.32-4.877,6.14c0.362,0.362,0.682,0.717,0.954,1.057h4.468&#10;&#9;&#9;v2.797c-0.683,2.592-1.513,4.889-2.49,6.889l-2.25-2.012c0.5-0.979,1.092-2.535,1.772-4.672h-2.047v13.641&#10;&#9;&#9;c0,1.203-0.25,2.045-0.75,2.523c-0.477,0.5-1.354,0.75-2.625,0.75h-2.729l-0.717-3.273c1.047,0.158,1.897,0.238,2.559,0.238&#10;&#9;&#9;c0.84,0,1.262-0.262,1.262-0.785V63.53c-0.612,2.434-1.172,4.272-1.672,5.522c-0.612,1.798-1.67,3.912-3.172,6.345l-2.387-2.115&#10;&#9;&#9;c1.297-2.021,2.33-4.012,3.104-5.967c0.568-1.523,1.068-3.285,1.5-5.285h-4.057v-3.002h6.273c-1.113-1.387-2.388-2.83-3.818-4.33&#10;&#9;&#9;l2.217-1.398c0.978,0.933,1.853,1.798,2.625,2.593c1-1,2.092-2.297,3.273-3.89h-9.787L519.343,49.14L519.343,49.14z&#10;&#9;&#9; M541.576,79.489l-0.782-3.137c1.112,0.045,1.896,0.067,2.352,0.067c1.16,0,1.877-0.147,2.148-0.442&#10;&#9;&#9;c0.479-0.593,0.75-2.695,0.817-6.31h-4.229c-0.523,1.75-1.193,3.273-2.013,4.568c-1.455,2.297-4.022,4.094-7.707,5.389&#10;&#9;&#9;l-1.329-3.035c3.159-1.045,5.377-2.512,6.649-4.397c0.478-0.66,0.887-1.502,1.229-2.523h-5.97V66.94h6.615&#10;&#9;&#9;c0.16-0.955,0.273-2,0.342-3.138l3.138,0.308c-0.068,1.022-0.193,1.967-0.375,2.83h6.922c-0.183,5.297-0.433,8.547-0.75,9.752&#10;&#9;&#9;c-0.158,0.955-0.646,1.692-1.465,2.217C546.669,79.296,544.806,79.489,541.576,79.489z M537.384,47.706l3,0.648&#10;&#9;&#9;c-0.408,0.91-0.83,1.762-1.263,2.559h11.084v2.592h-2.082c-0.84,2.545-2.012,4.56-3.512,6.035c-0.045,0.047-0.08,0.08-0.102,0.103&#10;&#9;&#9;c1.772,1.114,3.942,2.069,6.514,2.864l-1.979,2.935c-3.048-1.137-5.435-2.33-7.162-3.582c-1.773,1.184-4.148,2.467-7.127,3.854&#10;&#9;&#9;l-1.603-3.104c2.568-0.863,4.683-1.818,6.342-2.863c-1.25-1.272-2.33-2.672-3.239-4.195c-0.841,1.205-1.693,2.229-2.558,3.07&#10;&#9;&#9;l-2.184-2.627C534.108,53.517,536.063,50.753,537.384,47.706z M538.714,53.505c0.952,1.705,2.08,3.148,3.375,4.33&#10;&#9;&#9;c1.229-1.16,2.217-2.604,2.967-4.33H538.714z"/>
		<path fill="#010101" d="M569.996,47.706h3.41v1.435h13.572v2.592h-13.572v1.772h15.586c-0.522,2.273-1.41,4.523-2.66,6.752&#10;&#9;&#9;l-3.444-0.989c0.842-0.888,1.522-1.943,2.047-3.17h-12.414v1.875l8.9-0.308l0.377,2.455l-9.277,0.307v0.613&#10;&#9;&#9;c0,0.66,0.443,0.99,1.33,0.99h11.492v2.455h-12.275c-1.184,0-2.115-0.193-2.797-0.58c-0.682-0.41-1.022-1.057-1.022-1.943v-1.434&#10;&#9;&#9;l-4.125,0.137l-0.375-2.455l4.5-0.137v-1.977h-6.273v7.022c0,2.479-0.205,5.105-0.615,7.879c-0.5,2.818-1.342,5.604-2.522,8.354&#10;&#9;&#9;l-2.863-2.558c1.09-2.16,1.84-4.434,2.25-6.819c0.318-2.455,0.477-4.74,0.477-6.855v-9.615H570v-5.799H569.996z M567.576,63.53&#10;&#9;&#9;l2.353,1.467c-0.135,0.363-0.271,0.715-0.408,1.058h5.422v1.979c-0.592,2.705-1.592,5.012-3,6.922&#10;&#9;&#9;c0.135,0.09,0.26,0.158,0.375,0.205c1.773,0.887,4.943,1.33,9.514,1.33c2.91,0,5.354-0.08,7.332-0.24l-0.887,3.104&#10;&#9;&#9;c-9.504,0-15.188-0.488-17.051-1.465c-0.5-0.252-0.943-0.535-1.33-0.854c-1.433,1.092-3.262,2.047-5.49,2.865l-1.567-2.39&#10;&#9;&#9;c2.137-0.682,3.842-1.5,5.114-2.454c-0.66-0.933-1.272-2-1.842-3.205c-0.637,0.772-1.354,1.547-2.147,2.317l-1.535-2.522&#10;&#9;&#9;c1.047-0.818,2.035-1.988,2.967-3.513C566.121,66.952,566.849,65.417,567.576,63.53z M567.541,69.806&#10;&#9;&#9;c0.705,1.454,1.479,2.625,2.32,3.512c1.045-1.342,1.818-2.99,2.318-4.945h-3.785C568.076,68.94,567.791,69.419,567.541,69.806z&#10;&#9;&#9; M577.978,66.054h6.344v5.114c0,0.729,0.386,1.092,1.158,1.092h0.479c0.182-0.047,0.317-0.217,0.407-0.512&#10;&#9;&#9;c0.093-0.295,0.17-1.397,0.238-3.309l2.695,1.092c-0.229,2.113-0.49,3.479-0.785,4.092c-0.34,0.637-0.762,0.955-1.262,0.955h-2.763&#10;&#9;&#9;c-0.934,0-1.58-0.17-1.942-0.512c-0.547-0.523-0.818-1.238-0.818-2.148v-3.547h-2.32c-0.227,1.797-0.602,3.16-1.125,4.092&#10;&#9;&#9;c-0.522,0.979-1.5,1.91-2.932,2.797l-1.74-2.454c1-0.343,1.763-1,2.285-1.979c0.478-0.908,0.717-2.5,0.717-4.772H577.978z"/>
	</g>
	<g transform="matrix(1.0000000000000002, 0, 0, 1.0000000000000002, 131.2995816752125, 108.16418177623348)">
		<path fill="#F5A61C" d="M3.53,45.81c0,0-0.37,0-0.617-0.37c-0.246-0.37,0.124-0.616,0.124-0.616l56.43-44.453l0.247-0.124&#10;&#9;&#9;c0,0,0.246-0.247,0.616-0.247c0.371,0,0.617,0.247,0.617,0.247l50.873,44.576c0,0,0.247,0.122,0.124,0.616&#10;&#9;&#9;c-0.124,0.37-0.37,0.37-0.617,0.37H91.693c0,0-0.247,0-0.616-0.246C90.829,45.439,61.071,19.14,61.071,19.14&#10;&#9;&#9;s-0.741-0.74-1.111-0.988c-0.246-0.123-0.988-0.741-1.729-0.123c-0.124,0.123-33.709,27.535-33.709,27.535&#10;&#9;&#9;s-0.247,0.246-0.618,0.246H3.53z"/>
		<path fill="#F5A61C" d="M54.526,60.628l22.104-19.139c0,0,0.247-0.247,0.616-0.124c0.247,0.124,0.371,0.371,0.371,0.371&#10;&#9;&#9;l6.914,10.124c0,0,0.124,0.371-0.122,0.741C84.284,52.848,60.7,89.275,60.7,89.275s-0.124,0.246-0.618,0.246&#10;&#9;&#9;c-0.369,0-0.369-0.37-0.369-0.37l-5.558-27.782C54.279,61.245,54.156,60.998,54.526,60.628"/>
		<path fill="#F5A61C" d="M55.021,85.94c0,0,0.124,0,0.124-0.124c0-0.123-5.063-25.931-5.063-25.931s-0.124-0.246,0-0.615&#10;&#9;&#9;c0.124-0.247,0.248-0.371,0.248-0.371l21.36-19.018c0,0,0.247-0.123,0.247-0.369c0.124-0.246,0-0.616,0-0.616&#10;&#9;&#9;c0-0.123-3.21-4.446-3.21-4.446s-0.124-0.371-0.617-0.371c-0.37-0.123-0.617,0-0.74,0.124L43.784,53.96&#10;&#9;&#9;c0,0-0.247,0.124-0.247,0.371c-0.124,0.246,0,0.369,0,0.617c0,0.123,11.235,30.868,11.235,30.868S54.897,85.94,55.021,85.94"/>
		<path fill="#F5A61C" d="M48.846,80.384l0.124,0.246c0,0,0,0.124,0.124,0.124s0.247-0.124,0.124-0.246L39.092,52.849&#10;&#9;&#9;c0,0,0-0.123,0-0.37s0.246-0.371,0.246-0.618c0.124,0,23.831-20.497,23.831-20.497s0.248-0.124,0.248-0.37&#10;&#9;&#9;c0.124-0.247,0-0.617,0-0.741c0-0.122-3.211-4.444-3.211-4.444s-0.124-0.37-0.616-0.616c-0.371-0.124-0.742,0.122-0.742,0.122&#10;&#9;&#9;L30.449,48.897c0,0-0.247,0.247-0.247,0.617c0,0.248,0.124,0.617,0.124,0.741C30.325,50.38,48.846,80.384,48.846,80.384"/>
		<path fill="#E53325" d="M92.311,52.231c0,0-0.371,0-0.741,0.247L62.553,98.164c0,0-0.124,0.124-0.124,0.618&#10;&#9;&#9;c0.124,0.247,0.369,0.371,0.616,0.371h20.127c0,0,0.371,0,0.741-0.371l27.782-45.688c0,0,0.124-0.122,0-0.369&#10;&#9;&#9;c0-0.124-0.124-0.618-0.617-0.618H92.311V52.231z"/>
		<path fill="#E53325" d="M23.904,51.983c0,0,0.371,0,0.742,0.248l27.781,45.811c0,0,0.124,0.122,0.124,0.616&#10;&#9;&#9;c-0.124,0.247-0.37,0.371-0.617,0.371H31.189c0,0-0.371,0-0.74-0.371L4.148,52.849c0,0-0.124-0.123-0.124-0.37&#10;&#9;&#9;c-0.124-0.124,0.124-0.618,0.493-0.618h19.386L23.904,51.983L23.904,51.983z"/>
	</g>
	<g transform="matrix(1.0000000000000002, 0, 0, 1.0000000000000002, 131.2995816752125, 108.16418177623348)">
		<path d="M134.849,33.768v-9.654h7.333v-4.158h1.465v4.158h7.334v9.654h-1.467V32.18h-5.867v7.578h-1.465V32.18h-5.989v1.588&#10;&#9;&#9;H134.849z M142.303,25.462h-5.867v5.374h5.991L142.303,25.462z M149.514,25.462h-5.867v5.374h5.867V25.462z"/>
		<path d="M170.902,36.46h-6.967v-1.222h6.967v-1.835h-9.167V32.18h9.167v-5.619h-7.701v-1.227h16.866v1.227h-7.699v5.619h9.167&#10;&#9;&#9;v1.223h-9.167v1.835h6.966v1.222h-6.966v3.542h-1.346V36.46H170.902z M168.215,19.96v2.2h3.054v1.223h-3.054v1.343&#10;&#9;&#9;c-0.491,0-0.856,0-1.346,0v-1.343h-4.522v-1.223h4.522v-2.2H168.215z M167.359,27.172v1.466h2.687v1.222h-2.687v1.71h-1.345v-1.71&#10;&#9;&#9;h-3.179v-1.222h3.179v-1.466H167.359z M175.057,24.849v-1.346h-2.932v-1.221h2.932v-2.326h1.345v2.326h4.643v1.221h-4.643v1.346&#10;&#9;&#9;H175.057z M180.312,29.859h-3.178v1.71h-1.342v-1.71h-2.69v-1.222h2.69v-1.466h1.342v1.344h3.178V29.859z"/>
		<path d="M200.968,20.448c0,2.324,0,4.644-0.369,6.967c0,0.365,0.123,0.734,0.245,1.101c0.366,0.607,1.099,2.32,1.833,3.664&#10;&#9;&#9;l0.124,0.122c1.465,2.446,4.155,4.769,6.843,5.868l-1.099,1.221c-0.734-0.365-1.589-0.855-2.324-1.343&#10;&#9;&#9;c-3.056-2.077-5.132-4.886-6.355-8.068c-1.222,3.301-3.667,6.114-6.599,8.189c-0.61,0.366-1.1,0.733-1.711,1.1&#10;&#9;&#9;c-0.488-0.366-0.855-0.734-1.224-1.1c1.346-0.854,2.689-1.834,3.912-3.055c1.466-1.467,2.932-3.18,3.787-5.011&#10;&#9;&#9;c1.346-2.69,1.223-6.721,1.223-9.778L200.968,20.448z"/>
		<path d="M237.389,31.206h-7.7c0.12,0.611,0.366,1.22,0.61,1.708l0.123,0.246c0.49,0.854,0.979,1.464,1.589,2.2&#10;&#9;&#9;c1.101,1.219,2.444,2.077,3.912,2.444c0.242,0,0.365-0.123,0.487-0.247c0.124-0.487,0.124-1.1,0.246-1.586v-1.591&#10;&#9;&#9;c0.49,0.245,0.979,0.489,1.589,0.735c0,0.856-0.123,1.709-0.368,2.566c-0.12,0.611-0.243,1.343-0.855,1.71&#10;&#9;&#9;c-0.976,0.365-1.833-0.124-2.687-0.489c-3.056-1.466-5.38-4.525-6.11-7.577h-5.99v6.231l5.866-2.076v1.464l-4.891,1.835&#10;&#9;&#9;c-0.731,0.245-1.586,0.61-2.32,0.856c-0.367-0.367-0.734-0.611-1.221-0.98c0.731-0.365,1.1-1.099,1.1-1.954V20.937h15.031v5.867&#10;&#9;&#9;h-6.72c0,1.099,0.121,2.199,0.366,3.176h8.065v1.226H237.389L237.389,31.206z M222.234,26.803v3.053h5.622&#10;&#9;&#9;c-0.244-0.977-0.244-2.077-0.244-3.175L222.234,26.803z M222.234,22.282v3.179h12.1v-3.179H222.234z"/>
		<path d="M255.354,34.258c-1.956,2.203-4.4,4.158-6.844,5.5l-0.854-1.102c1.586-0.852,3.054-1.83,4.398-3.175&#10;&#9;&#9;c0.856-0.854,1.465-1.466,1.956-2.077L255.354,34.258z M261.466,19.96v4.276h3.298v1.343h-3.298v5.501h4.643v1.345h-18.086V31.08&#10;&#9;&#9;h4.643v-5.501h-3.3v-1.343h3.3V19.96h1.466v4.276h5.99V19.96H261.466z M259.999,25.579h-5.99v5.501h5.99V25.579z M259.875,33.281&#10;&#9;&#9;c2.322,1.466,4.767,3.179,6.479,5.499l-0.98,0.856c-1.71-2.2-4.276-4.031-6.476-5.257L259.875,33.281z"/>
		<path d="M285.786,33.893c-0.611-1.467-1.589-2.934-3.058-3.915v9.9h-1.343v-9.409c-0.978,1.957-2.568,4.034-4.401,5.623&#10;&#9;&#9;l-1.22-0.978c2.565-1.955,4.766-4.765,5.621-7.701h-4.401v-1.345h4.401v-3.176c-1.345,0.122-2.689,0.49-4.154,0.49l-0.491-1.223&#10;&#9;&#9;c3.057-0.243,6.111-0.613,8.679-1.956l0.856,1.1c-0.615,0.367-1.347,0.613-1.956,0.856l-1.59,0.49v3.541h3.79v1.347h-3.79v2.076&#10;&#9;&#9;l0.735-0.49c0.855,0.49,1.587,1.227,2.199,2.083c0.489,0.611,0.856,1.343,1.225,2.076L285.786,33.893z M294.341,38.415h-1.346&#10;&#9;&#9;v-2.202h-3.911v2.202h-1.344V21.916h6.722L294.341,38.415z M288.965,34.994h3.909V23.258h-3.909V34.994z"/>
		<path d="M305.342,39.758V21.06h17.232v18.698h-1.467v-1.102H306.81v1.102H305.342z M321.349,22.282h-14.54v15.154h14.54V22.282z&#10;&#9;&#9; M309.376,34.994c-0.493,0.12-0.979,0.241-1.469,0.365c-0.245-0.365-0.365-0.857-0.614-1.224l1.712-0.243l5.256-1.102l0.123,1.224&#10;&#9;&#9;L309.376,34.994z M320.005,27.901c-0.61,1.591-1.709,3.79-2.69,5.137c0.368,0.73,0.612,1.341,1.101,1.957&#10;&#9;&#9;c0.121,0,0.248,0.12,0.248,0c0.243-0.371,0.243-0.859,0.367-1.226c0.121-0.487,0.121-0.978,0.121-1.467&#10;&#9;&#9;c0.367,0.124,0.855,0.367,1.225,0.613c-0.125,1.221-0.49,2.324-0.98,3.546c-0.123,0.242-0.488,0.486-0.858,0.486&#10;&#9;&#9;c-0.609,0-0.854-0.733-1.221-1.099c-0.363-0.487-0.854-1.097-0.977-1.71c-0.242,0.489-0.732,0.979-1.22,1.344&#10;&#9;&#9;c-0.491,0.49-1.101,1.099-1.835,1.465l-1.1-0.853c0.246-0.247,0.49-0.367,0.734-0.613c0.245-0.121,0.488-0.365,0.731-0.61&#10;&#9;&#9;c0.491-0.366,0.979-0.856,1.346-1.224l0.612-0.731c-0.245-0.857-0.488-1.589-0.612-2.566c-0.243-1.589-0.367-2.813-0.488-4.158&#10;&#9;&#9;h-7.333V24.97h7.209v-2.198h1.345v2.198h1.954c-0.367-0.488-0.73-1.1-1.221-1.467l1.221-0.61c0.613,0.61,1.101,1.345,1.59,2.078&#10;&#9;&#9;h0.733v1.222h-4.276c0.125,2.199,0.368,3.667,0.61,5.5h0.122c0.612-1.101,1.221-2.321,1.709-3.543&#10;&#9;&#9;c0.125-0.367,0.246-0.734,0.367-0.978L320.005,27.901z M314.014,31.935h-5.742v-4.397h5.867v4.397H314.014z M309.495,30.715h3.177&#10;&#9;&#9;v-1.834h-3.177V30.715z"/>
		<path d="M346.894,39.758v-1.223h-9.046v1.221h-1.343v-9.167c-0.977,0.492-1.953,0.857-2.934,1.226l-0.978-1.101&#10;&#9;&#9;c2.691-0.857,5.5-2.324,7.333-4.646h-6.235v-1.342h8.068v-1.956c-2.2,0.122-4.402,0.366-6.723,0.366l-0.98-1.346l4.646-0.119&#10;&#9;&#9;c1.589,0,3.057-0.245,4.646-0.368l3.544-0.487c0.731-0.124,1.464-0.368,2.196-0.491l0.981,0.978&#10;&#9;&#9;c-2.201,0.733-4.646,0.979-7.086,1.345v2.201h8.064v1.342h-8.189v4.401h5.134v9.411h-1.098V39.758L346.894,39.758z M341.761,25.948&#10;&#9;&#9;c-1.226,1.832-2.932,3.3-4.767,4.4h4.767V25.948z M346.894,31.692h-9.046v1.956h9.046V31.692z M346.894,37.189v-2.195h-9.046v2.195&#10;&#9;&#9;H346.894z M351.171,31.448c-2.201-1.954-4.648-3.298-7.336-4.034c0.371-0.367,0.615-0.732,0.98-1.1&#10;&#9;&#9;c2.691,0.732,5.133,2.076,7.212,4.034L351.171,31.448z"/>
		<path d="M364.373,29.247c-0.609-1.219-1.836-2.2-3.179-2.686l0.853-0.98c1.344,0.367,2.815,1.59,3.427,2.687L364.373,29.247z&#10;&#9;&#9; M361.438,38.903c1.71-1.833,2.811-5.135,3.176-7.823l1.225,0.367c-0.365,2.932-1.347,5.742-3.056,8.064L361.438,38.903z&#10;&#9;&#9; M365.345,24.236c-0.484-1.222-2.321-2.32-3.298-2.566l0.979-0.855c1.225,0.488,2.448,1.221,3.301,2.443L365.345,24.236z&#10;&#9;&#9; M370.971,38.903c-1.098,0-1.711-0.488-1.711-1.346V31.08c-0.733,0.611-1.467,1.1-2.202,1.588l-0.856-1.1&#10;&#9;&#9;c1.712-0.733,3.179-2.076,3.915-3.789h-3.665v-1.219h3.422v-2.693h-2.565V22.65h2.565v-2.569h1.342v2.569h4.157v-2.569h1.342v2.569&#10;&#9;&#9;h2.568v1.219h-2.568v2.693h3.425v1.219h-3.546c0.486,1.343,2.447,3.055,4.521,3.911l-0.975,1.099&#10;&#9;&#9;c-0.978-0.489-1.959-1.222-2.692-1.955v4.279h-6.841v1.831c0,0.37,0.242,0.611,0.731,0.611h5.986c1.227,0,0.981-1.343,1.106-2.197&#10;&#9;&#9;h1.343c-0.125,1.464-0.125,3.419-2.076,3.419h-6.724v0.124H370.971z M371.455,27.78c-0.242,0.858-0.85,1.59-1.341,2.324h6.719&#10;&#9;&#9;c-0.608-0.734-1.096-1.466-1.586-2.324H371.455z M370.605,33.768h5.62v-2.443h-5.62V33.768L370.605,33.768z M371.213,23.749v2.686&#10;&#9;&#9;h4.158v-2.686H371.213z"/>
		<path d="M394.192,32.302l-2.933,1.346l-0.981-1.1l3.914-1.589v-4.891h-1.828c-0.369,1.224-0.738,2.199-1.349,3.423l-1.219-0.732&#10;&#9;&#9;c1.219-2.078,1.83-3.911,1.952-6.359l1.347,0.37c0,0.487-0.124,1.223-0.246,1.956h1.465v-4.769h1.348v4.769h2.079v1.342h-2.079&#10;&#9;&#9;v4.155l2.199-0.853v1.466l-2.078,0.979v8.062h-1.344v-7.577h-0.246V32.302z M402.255,38.291c0.861,0,1.71,0.124,2.566,0.124&#10;&#9;&#9;c0.246-0.124,0.492-0.246,0.492-0.488v-0.37v-4.885h-7.704v-1.344h7.704v-1.956h1.34v2.078h2.696v1.343h-2.696v5.379&#10;&#9;&#9;c0,0.611-0.486,1.221-1.1,1.467c-0.854,0.242-1.834,0.121-2.805,0.121L402.255,38.291z M408.98,27.413v1.347h-10.754v-1.347h4.524&#10;&#9;&#9;v-3.299h-3.792v-1.345h3.667v-2.932h1.341v2.932h3.917v1.345h-3.917v3.421h5.015V27.413L408.98,27.413z M402.014,36.824&#10;&#9;&#9;c-0.858-1.097-1.958-2.2-3.299-2.688l0.854-0.854c1.346,0.487,2.445,1.466,3.423,2.566L402.014,36.824z"/>
		<path d="M423.646,31.817c-0.367,3.051-1.59,5.987-4.277,7.941l-1.104-1.102c1.592-1.099,2.936-2.929,3.426-4.641&#10;&#9;&#9;c0.609-1.956,0.732-4.156,0.732-6.356h-2.202v-6.844h9.169v6.844h-5.625v2.691h5.988c0,1.952-0.244,3.908-0.608,5.744&#10;&#9;&#9;c-0.368,1.098-0.368,2.441-1.587,2.932c-0.734,0.244-1.84,0.244-2.689,0l-1.103-0.37l-0.362-1.464&#10;&#9;&#9;c0.362,0.124,0.856,0.245,1.219,0.365c0.736,0.124,2.08,0.734,2.566-0.242c0.611-1.834,0.982-3.667,0.982-5.624h-4.525V31.817&#10;&#9;&#9;L423.646,31.817z M421.568,22.282v4.152h6.353v-4.152H421.568z M433.175,22.159v12.835h-1.463V22.159H433.175z M432.2,38.291h2.688&#10;&#9;&#9;c0.367,0,0.614-0.243,0.614-0.611V19.96h1.345v18.21c-0.121,0.611-0.246,1.221-1.225,1.467h-2.447L432.2,38.291z"/>
		<path d="M450.41,30.836c-0.61,0.612-1.954,1.466-2.565,1.955c-0.367-0.365-0.854-0.731-1.22-1.099&#10;&#9;&#9;c2.687-1.588,5.011-4.033,6.719-6.6l1.101,0.733c-0.488,0.979-1.833,2.443-2.688,3.545v10.267h-1.347V30.836L450.41,30.836z&#10;&#9;&#9; M453.463,20.448c-1.464,2.202-3.175,4.401-5.374,5.99c-0.125,0-0.125-0.122-0.125-0.122l-0.975-0.854&#10;&#9;&#9;c2.197-1.591,4.035-3.544,5.502-5.867L453.463,20.448z M455.056,28.15v-1.346h11.249v1.346h-4.034v9.655&#10;&#9;&#9;c-0.129,0.731-0.373,1.221-0.861,1.465c-0.363,0.243-0.852,0.243-1.343,0.243h-2.322c-0.12-0.486-0.365-0.856-0.488-1.342&#10;&#9;&#9;c0.978,0.122,1.952,0.122,2.936,0.122c0.241-0.122,0.608-0.243,0.608-0.734V28.15H455.056z M464.956,22.65h-9.411v-1.347h9.411&#10;&#9;&#9;V22.65z"/>
		<path d="M486.464,34.994c-1.462,0.487-2.935,0.976-4.398,1.584l-6.234,2.201l-0.977-1.343l2.078-0.612V26.559h1.465v9.897&#10;&#9;&#9;l2.323-0.854V22.769h-4.764v-1.342h10.017v1.342h-3.91v5.257h3.061v1.344h-3.061v5.744l4.278-1.588L486.464,34.994z&#10;&#9;&#9; M488.666,19.837c0,1.345-0.126,2.932-0.247,4.277h6.359v1.347h-1.713v0.852c-0.123,2.81-0.98,5.503-2.563,7.944&#10;&#9;&#9;c1.215,1.713,2.805,3.547,4.645,4.278c-0.369,0.367-0.613,0.732-0.863,1.1c-1.705-1.1-3.299-2.565-4.518-4.157h-0.124&#10;&#9;&#9;c-1.344,1.71-2.932,3.175-4.641,4.276l-1.104-0.978c1.956-1.099,3.664-2.687,5.009-4.522c-0.732-1.589-1.345-3.054-1.705-4.765&#10;&#9;&#9;c-0.489,0.977-0.86,1.835-1.348,2.809l-1.465-0.608c0.245-0.365,0.488-0.731,0.612-0.978c1.22-2.2,1.952-4.766,2.2-7.333&#10;&#9;&#9;c0-0.733,0.119-2.809,0.119-3.545h1.345V19.837z M488.299,25.462c-0.126,0.363-0.245,0.973-0.367,1.341&#10;&#9;&#9;c0.241,2.076,0.732,4.156,1.711,6.111h0.124c1.219-2.201,1.951-4.768,1.951-7.335L488.299,25.462z"/>
		<path d="M523.128,38.781h-15.521c-1.097,0-1.833-0.489-1.833-1.589v-14.79h-1.466V21.06h18.821v1.342h-15.887v14.543&#10;&#9;&#9;c0,0.491,0.247,0.735,0.731,0.735h15.155v1.1H523.128z M514.575,35.727h-6.111v-5.871h6.111V35.727z M509.806,30.959v3.543h3.549&#10;&#9;&#9;v-3.543H509.806z M520.198,28.268h-9.78v-4.646h9.78V28.268z M511.644,27.047h7.087v-2.322h-7.087V27.047z M522.031,29.736v5.87&#10;&#9;&#9;h-5.987v-5.87H522.031z M520.811,30.959h-3.423v3.543h3.423V30.959z"/>
		<path d="M543.542,34.994c-1.469,0.487-2.936,0.976-4.4,1.584l-6.231,2.201l-0.982-1.343l2.084-0.612V26.559h1.466v9.897&#10;&#9;&#9;l2.318-0.976V22.65h-4.886v-1.347h10.021v1.347h-3.911v5.251h3.053v1.347h-3.053v5.747l4.274-1.591L543.542,34.994z&#10;&#9;&#9; M545.744,19.837c0,1.345-0.126,2.932-0.249,4.277h6.354v1.347h-1.711v0.852c-0.121,2.81-0.978,5.503-2.564,7.944&#10;&#9;&#9;c1.222,1.713,2.814,3.547,4.643,4.278c-0.367,0.367-0.613,0.732-0.855,1.1c-1.709-1.1-3.301-2.565-4.52-4.157h-0.127&#10;&#9;&#9;c-1.342,1.71-2.931,3.175-4.644,4.276l-1.095-0.978c1.956-1.099,3.664-2.687,5.008-4.522c-0.73-1.589-1.344-3.054-1.709-4.765&#10;&#9;&#9;c-0.489,0.977-0.858,1.835-1.343,2.809l-1.468-0.608c0.241-0.365,0.486-0.731,0.606-0.978c1.225-2.2,1.96-4.766,2.204-7.333&#10;&#9;&#9;c0-0.733,0.121-2.809,0.121-3.545h1.349V19.837z M545.253,25.462c-0.123,0.363-0.246,0.973-0.365,1.341&#10;&#9;&#9;c0.242,2.076,0.73,4.156,1.704,6.111h0.122c1.227-2.201,1.961-4.768,1.961-7.335L545.253,25.462z"/>
		<path d="M567.13,30.591c-0.489,0.489-1.102,1.101-1.594,1.589c-0.365-0.245-0.606-0.611-0.974-0.732c0,0.244,0,0.244,0,0.487&#10;&#9;&#9;c0,2.568-0.61,4.889-1.96,6.968c-0.238,0.243-0.363,0.609-0.73,0.855l-1.221-0.855c0.979-1.467,2.078-2.809,2.199-4.646&#10;&#9;&#9;c0.246-0.732,0.246-1.467,0.246-2.323l0.123-10.019h7.82c-0.611-0.613-1.465-1.225-2.322-1.59c0.368-0.366,0.979-0.489,1.346-0.855&#10;&#9;&#9;c0.977,0.489,2.076,1.589,2.691,2.445h6.963v1.342h-15.153l-0.122,7.822c2.198-2.078,3.667-4.646,4.768-7.331&#10;&#9;&#9;c0.367,0.244,0.73,0.487,1.219,0.73c-0.604,1.345-1.219,2.813-2.076,4.158v11.119h-1.221v-9.165H567.13z M577.517,27.047h3.056&#10;&#9;&#9;v1.344h-3.056v9.536c0,0.729-0.488,1.219-1.1,1.464c-0.977,0.121-2.076,0-3.057,0.121c-0.123-0.486-0.367-0.977-0.486-1.464&#10;&#9;&#9;c0.98,0,1.834,0.122,2.808,0.122c0.246-0.122,0.37-0.243,0.487-0.365v-9.289h-6.229v-1.344h6.229v-2.934h1.471L577.517,27.047z&#10;&#9;&#9; M573.605,34.994c-0.73-1.469-1.588-2.814-2.809-3.914c0.242-0.365,0.605-0.489,0.98-0.855c0.609,0.366,0.977,0.98,1.341,1.466&#10;&#9;&#9;c0.737,0.734,1.224,1.711,1.708,2.566L573.605,34.994z"/>
	</g>
</svg>