<?xml version="1.0" encoding="UTF-8" standalone="no"?>
<!-- Created with Inkscape (http://www.inkscape.org/) -->

<svg
   xmlns:svg="http://www.w3.org/2000/svg"
   xmlns="http://www.w3.org/2000/svg"
   version="1.1"
   width="1133.8583"
   height="263.2677"
   id="svg2">
  <defs
     id="defs4" />
  <g
     transform="translate(34.845087,-188.35511)"
     id="layer1">
    <g
       transform="translate(35.433095,-35.359855)"
       id="g2969">
      <path
         d="m 34.84969,414.8975 0,-5.45087 c 24.826013,-2.14219 44.824746,-18.72955 52.168375,-41.0759 -3.85889,2.29626 -8.290011,4.4458 -13.440088,6.20651 -5.832352,10.18277 -15.230143,18.23802 -26.638077,22.40503 4.11566,-7.32162 7.343628,-15.5456 9.441808,-24.45186 13.146636,-2.97853 24.305136,-7.8645 32.250341,-13.03659 0.740965,-3.63146 0.939045,-8.74486 0.939045,-10.45422 0,-1.70935 -0.19808,-6.83742 -0.939045,-10.46889 -7.945205,-5.19409 -19.125714,-10.04338 -32.265014,-13.02191 -2.098179,-8.92094 -5.333484,-17.16693 -9.427135,-24.43719 11.422607,4.16701 20.805725,12.19291 26.638077,22.38302 5.150077,1.76805 9.581198,3.91025 13.440088,6.21384 -7.343629,-22.36102 -27.342362,-38.9337 -52.168375,-41.08323 l 0,-5.38484 c 20.761707,-0.97573 40.378953,-7.29961 49.05045,-15.90508 l -5.582918,-7.60774 c -9.881986,7.57839 -25.54497,12.7358 -43.467532,13.61616 l 0,-14.26909 -10.923739,0 0,14.26909 C 5.9887161,272.46338 -9.674268,267.30597 -19.556254,259.72758 l -5.597591,7.60774 c 8.671498,8.60547 28.3107523,14.93669 49.079796,15.90508 l 0,5.38484 c -24.84068596,2.14953 -44.854091,18.72221 -52.183047,41.08323 3.844217,-2.30359 8.275337,-4.44579 13.425415,-6.21384 5.8470245,-10.19011 15.24481494,-18.21601 26.652749,-22.38302 -4.0936506,7.28493 -7.3289555,15.53826 -9.4271351,24.43719 -13.1246269,2.9932 -24.2684549,7.82782 -32.2430049,13.02191 -0.71162,3.63147 -0.931709,8.75954 -0.931709,10.46889 0,1.70936 0.220089,6.82276 0.931709,10.45422 7.97455,5.17209 19.118378,10.04338 32.2283323,13.02192 2.0981796,8.92093 5.3261482,17.14491 9.4418077,24.46653 -11.39326147,-4.18168 -20.8057245,-12.22226 -26.652749,-22.40503 -5.150078,-1.76071 -9.581198,-3.91025 -13.425415,-6.20651 7.328956,22.34635 27.34236104,38.93371 52.183047,41.0759 l 0,5.45087 c -26.8581663,1.79739 -49.44661,16.40395 -58.771038,35.92582 l 12.068201,0 c 9.346436,-14.43048 26.9388653,-24.34915 46.702837,-25.92645 l 0,26.72611 10.923739,0 0,-26.72611 c 19.734626,1.5773 37.3564,11.49597 46.688164,25.92645 l 12.068201,0 C 84.2963,431.30145 61.707856,416.69489 34.84969,414.8975 z m 44.384568,-71.69758 c 0.190744,1.78271 0.300788,4.21103 0.300788,5.83968 0,1.62866 -0.110044,4.05697 -0.300788,5.82502 -5.942396,3.14727 -13.065936,5.76633 -21.040486,7.67376 0.564895,-4.41645 0.895028,-8.90626 0.895028,-13.50611 0,-4.60719 -0.330133,-9.08233 -0.895028,-13.46943 7.97455,1.88542 15.09809,4.49714 21.040486,7.63708 z m -69.6360861,5.83235 c 0,-5.28947 0.4401771,-10.43955 1.2471701,-15.39888 5.87637,-0.85101 12.104882,-1.32787 18.553483,-1.32787 6.441264,0 12.640431,0.47686 18.502129,1.30586 0.821665,4.98134 1.24717,10.13142 1.24717,15.42089 0,5.28213 -0.425505,10.43221 -1.24717,15.42088 -5.861698,0.84368 -12.060865,1.3132 -18.502129,1.3132 -6.448601,0 -12.677113,-0.46952 -18.553483,-1.3132 C 10.038349,359.46448 9.5981719,354.3144 9.5981719,349.03227 z M 24.872332,298.22844 c 1.496604,-0.13939 2.993208,-0.22009 4.51182,-0.22009 1.511276,0 3.00788,0.0807 4.489811,0.22009 5.157414,7.32896 9.236392,15.91976 11.870121,25.40558 -5.238113,-0.71895 -10.70365,-1.12979 -16.345259,-1.12979 -5.663618,0 -11.114483,0.41084 -16.359932,1.12979 2.61172,-9.48582 6.683362,-18.06195 11.833439,-25.40558 z m -45.279596,56.63618 c -0.205416,-1.76805 -0.31546,-4.19636 -0.31546,-5.82502 0,-1.62865 0.110044,-4.05697 0.31546,-5.83968 5.891043,-3.13994 13.0145829,-5.75166 20.97446008,-7.62975 -0.5648945,4.37977 -0.89502766,8.86958 -0.89502766,13.4621 0,4.59985 0.33013316,9.08966 0.89502766,13.47677 -7.95987718,-1.87809 -15.08341708,-4.49715 -20.97446008,-7.64442 z m 33.46083,19.5879 c 5.230776,0.71162 10.70365,1.12245 16.345259,1.12245 5.626936,0 11.077801,-0.41083 16.32325,-1.12245 -2.626392,9.45648 -6.712707,18.06195 -11.848112,25.40558 -1.481931,0.11005 -2.978535,0.20542 -4.489811,0.20542 -1.50394,0 -3.015216,-0.0954 -4.482474,-0.20542 -5.16475,-7.34363 -9.236392,-15.9491 -11.848112,-25.40558"
         id="path2830"
         style="fill:#ed1b2e;fill-opacity:1;fill-rule:nonzero;stroke:none" />
      <path
         d="m 961.96628,309.20353 62.25582,0 0,-8.5101 -62.25582,0 0,8.5101 z"
         id="path2832"
         style="fill:#ed1b2e;fill-opacity:1;fill-rule:nonzero;stroke:none" />
      <path
         d="m 1028.147,330.90429 -69.2546,0 0,8.54678 43.9444,0 c 0,15.27416 0,46.25532 0,46.7762 0,3.08858 -2.4943,5.59759 -5.58293,5.59759 0,0.0147 0,0.0294 0,0.0294 -1.43057,0 -9.91133,0 -20.46092,0 l -3.43338,8.20931 c 0,0 27.87053,0 28.49413,0 7.1236,0 12.8972,-5.77366 12.8972,-12.88987 0,-0.45485 0,-35.91849 0,-47.72258 l 13.3961,0 0,-8.54678"
         id="path2836"
         style="fill:#ed1b2e;fill-opacity:1;fill-rule:nonzero;stroke:none" />
      <path
         d="m 941.7107,328.14584 c 0,0 -13.19065,21.37062 -30.48229,37.82592 l 12.83117,0 c 3.5581,-3.38936 7.02817,-7.2776 10.10208,-11.03378 l -0.19075,6.00842 0,39.11711 10.84304,0 0,-59.5927 c 4.71724,-7.10887 7.50503,-12.32497 7.50503,-12.32497 -3.11793,0 -10.60828,0 -10.60828,0"
         id="path2840"
         style="fill:#ed1b2e;fill-opacity:1;fill-rule:nonzero;stroke:none" />
      <path
         d="m 916.41524,329.6938 12.2296,0 c 13.99764,-15.8684 23.87963,-33.57087 23.87963,-33.57087 -3.11792,0 -10.84304,0 -10.84304,0 0,0 -10.81369,17.66579 -25.26619,33.57087"
         id="path2844"
         style="fill:#ed1b2e;fill-opacity:1;fill-rule:nonzero;stroke:none" />
      <path
         d="m 598.7978,368.08461 c 5.51689,0 9.71325,0 11.61335,0 7.13088,0 12.91188,-5.76633 12.91188,-12.90454 0,-5.39217 0,-35.59569 0,-35.59569 l -42.7119,0 0,-10.68164 48.03804,0 0,-8.21665 -48.03804,0 0,-6.41925 -11.93615,0 0,6.41925 -47.84729,0 0,8.21665 47.84729,0 0,10.68164 -42.93198,0 0,48.50023 c 0,0 10.79902,0 24.74532,0 -9.77195,11.88479 -24.1144,23.53483 -35.36827,31.9789 l 14.7973,0 c 10.38819,-7.24826 24.11439,-19.07436 33.90834,-31.9789 1.62133,0 3.24265,0 4.84929,0 l 0,33.4755 11.93615,0 0,-33.4755 c 1.65067,0 3.30867,0 4.90064,0 9.77195,12.90454 23.48348,24.73064 33.88634,31.9789 l 14.7973,0 c -11.28322,-8.44407 -25.59632,-20.09411 -35.39761,-31.9789 z m 12.59641,-40.28358 c 0,0 0,5.34082 0,11.25387 l -30.78308,0 0,-11.25387 30.78308,0 z m -73.73707,0 31.01784,0 0,11.25387 -31.01784,0 0,-11.25387 z m 31.01784,0 z m -31.01784,32.08894 0,-12.62576 31.01784,0 0,12.62576 c -15.9491,0 -31.01784,0 -31.01784,0 z m 42.95399,-12.62576 30.78308,0 c 0,3.34535 0,6.05978 0,6.98415 0,3.07391 -2.49434,5.59026 -5.58291,5.59026 0,0.022 -0.0147,0.0367 -0.0147,0.0367 -1.62132,0.0147 -12.55973,0.0147 -25.18549,0.0147 l 0,-12.62576"
         id="path2848"
         style="fill:#ed1b2e;fill-opacity:1;fill-rule:nonzero;stroke:none" />
      <path
         d="m 732.28898,391.85413 0,-22.75718 c 0,0 12.58174,0 13.60149,0 7.13821,0 12.91187,-5.78833 12.91187,-12.91187 0,-0.78499 0,-30.46763 0,-30.46763 l -26.51336,0 0,-19.49986 30.13749,0 0,-8.20931 -107.38131,0 0,8.20931 30.11548,0 0,19.49986 -26.52803,0 0,43.3795 26.52803,0 0,22.75718 -33.5562,0 0,8.20931 110.38185,0 3.87356,-8.20931 -33.57087,0 z m -61.75691,-30.9885 0,-26.93886 26.56472,0 0,-27.70918 23.27805,0 0,27.70918 26.50603,0 c 0,0 0,15.0394 0,21.3266 0,3.08858 -2.48701,5.59759 -5.56091,5.59759 0,0 -0.0147,0.0147 -0.0294,0.0147 -6.62467,0 -20.91577,0 -20.91577,0 l 0,30.9885 -23.27805,0 0,-30.9885 -26.56472,0"
         id="path2852"
         style="fill:#ed1b2e;fill-opacity:1;fill-rule:nonzero;stroke:none" />
      <path
         d="m 368.68032,389.72668 -75.79857,0 0,-38.06802 62.96739,0 0,-10.33684 -62.96739,0 0,-32.96929 72.07907,0 0,-10.34418 -87.06712,0 0,102.05517 85.96668,0 4.81994,-10.25614 0,-0.0807"
         id="path2856"
         style="fill:#ed1b2e;fill-opacity:1;fill-rule:nonzero;stroke:none" />
      <path
         d="m 476.22301,400.06351 15.00272,0 -48.03804,-102.01114 -18.72222,0 -48.06005,102.01114 15.01739,0 14.29843,-30.4016 56.18866,0 14.31311,30.4016 z m -65.6158,-40.7531 23.21937,-49.28522 23.21203,49.28522 -46.4314,0"
         id="path2860"
         style="fill:#ed1b2e;fill-opacity:1;fill-rule:nonzero;stroke:none" />
      <path
         d="m 235.55599,346.1491 c 10.52758,-4.58518 17.73182,-13.7262 17.76116,-24.29046 0,0 0.0367,0 0.0514,0 -0.0147,-0.0147 -0.0514,-0.0147 -0.066,-0.0147 -0.0147,-13.1393 -12.68445,-23.75491 -28.58953,-23.75491 0.15406,0 -65.21964,0 -65.21964,0 0,0 0,100.83 0,101.9818 1.12979,0 62.03569,0 62.03569,0 4.35042,0 9.44181,-0.52088 14.97337,-1.84875 16.00046,-3.84421 21.07717,-17.41636 20.91577,-26.52069 -0.31546,-20.41691 -21.48066,-25.47161 -21.86215,-25.55231 z m -11.01911,42.96866 c -2.37696,0.4842 -5.17209,0.62359 -11.77475,0.62359 l -38.28077,0 0,-81.30079 47.23838,0 c 9.88199,0 16.5947,6.90345 16.60937,15.45023 l 0.0293,0.007 -0.0293,0.0293 c 0,8.48075 -5.65628,17.37968 -20.35088,17.85654 l -36.26329,0 0,10.33683 c 0,0 30.73173,-0.0293 36.26329,-0.0293 5.5389,0 11.84078,1.51127 14.50385,2.97853 5.83236,3.07391 9.20705,8.63482 9.20705,15.27416 0,7.89385 -5.28213,16.75609 -17.15225,18.77357"
         id="path2864"
         style="fill:#ed1b2e;fill-opacity:1;fill-rule:nonzero;stroke:none" />
      <path
         d="m 807.69139,308.11769 c 2.7291,-3.60946 4.15968,-3.66815 5.18676,-3.66815 1.04175,0 2.487,0.0587 5.20143,3.66815 0,0 4.7099,6.24318 8.5101,11.2392 l 12.83117,0 -13.17598,-17.43103 c -4.03496,-5.2968 -8.15062,-7.65175 -13.36672,-7.65175 -5.21611,0 -9.34644,2.35495 -13.35205,7.65175 l -13.17598,17.43103 12.83117,0 8.5101,-11.2392"
         id="path2868"
         style="fill:#ed1b2e;fill-opacity:1;fill-rule:nonzero;stroke:none" />
      <path
         d="m 799.99569,357.10211 -8.92093,0 c 0.91704,9.61054 2.53836,18.76624 4.63654,28.13468 l 8.56878,0 c -1.47459,-6.49262 -3.87356,-20.8204 -4.28439,-28.13468"
         id="path2872"
         style="fill:#ed1b2e;fill-opacity:1;fill-rule:nonzero;stroke:none" />
      <path
         d="m 830.07442,385.23687 c 2.08351,-9.36845 3.69016,-18.52414 4.62186,-28.13468 l -8.92826,0 c -0.42551,7.31428 -2.80247,21.64206 -4.2844,28.13468 l 8.5908,0"
         id="path2876"
         style="fill:#ed1b2e;fill-opacity:1;fill-rule:nonzero;stroke:none" />
      <path
         d="m 881.94208,378.2894 c 5.47287,-7.40232 10.02871,-14.98071 12.42034,-21.6494 l -11.88479,0 c -1.68735,3.51409 -4.21103,8.55412 -7.46835,13.13196 -3.49941,-4.58518 -6.57331,-9.08233 -8.76687,-13.13196 l -11.89946,0 c 8.29001,15.37687 25.34689,35.55901 35.6984,43.42352 5.28213,0 13.52812,0 13.52812,0 -6.4486,-5.47288 -14.42315,-13.42542 -21.62739,-21.77412"
         id="path2880"
         style="fill:#ed1b2e;fill-opacity:1;fill-rule:nonzero;stroke:none" />
      <path
         d="m 818.23364,349.76582 17.1009,0 0,-8.21665 -17.1009,0 0,-9.52984 17.1009,0 0,-8.21665 -45.04484,0 0,8.21665 17.22562,0 0,9.52984 -17.22562,0 0,8.21665 17.22562,0 0,42.08831 -21.67141,0 0,8.21665 49.76207,0 3.87356,-8.20198 0,-0.0147 -21.2459,0 0,-42.08831"
         id="path2884"
         style="fill:#ed1b2e;fill-opacity:1;fill-rule:nonzero;stroke:none" />
      <path
         d="m 858.77399,389.30117 c -2.47233,1.7387 -5.24545,1.53329 -5.24545,-2.0615 0,-4.81261 0,-38.36147 0,-38.36147 0,0 28.79495,0 29.85137,0 5.50222,0 9.96269,-4.4678 9.96269,-9.98469 0,-0.83634 0.0293,-40.87049 0.0293,-40.87049 l -50.57639,0 c 0,86.21611 0,86.21611 0,92.67205 0,6.92546 5.1354,11.24653 12.6551,10.77701 8.20931,-0.50621 15.75836,-8.85491 15.75836,-8.85491 -2.89784,-3.316 -4.13034,-4.95199 -6.52197,-8.31202 -2.41364,2.1422 -3.69015,3.40404 -5.91305,4.99602 z m 19.49986,-48.65429 c -0.94638,0 -24.74531,0.0147 -24.74531,0.0147 l 0,-13.10262 29.11041,0 c 0,4.68789 0,8.36338 0,8.70818 0,2.40631 -1.97346,4.37977 -4.3651,4.37977 z m 4.3651,-34.39254 c 0,0 0,6.27987 0,13.09528 l -29.11041,0 0,-13.09528 29.11041,0"
         id="path2888"
         style="fill:#ed1b2e;fill-opacity:1;fill-rule:nonzero;stroke:none" />
    </g>
  </g>
</svg>
