<?xml version="1.0" encoding="utf-8"?>
<svg viewBox="30.168 -97.7285 599.8976 599.8375" width="599.898" height="599.838"
	xmlns="http://www.w3.org/2000/svg">
	<path d="M 188.698 247.179 L 30.408 247.179 C 30.438 247.959 30.458 248.729 30.498 249.499 C 30.558 250.989 30.668 252.469 30.758 253.959 C 30.798 254.599 30.828 255.239 30.878 255.869 C 30.998 257.589 31.148 259.309 31.308 261.019 C 31.348 261.409 31.378 261.799 31.418 262.169 C 31.598 264.079 31.808 265.989 32.028 267.879 C 32.038 268.059 32.058 268.249 32.088 268.429 C 32.338 270.469 32.598 272.519 32.898 274.549 C 32.898 274.579 32.898 274.609 32.908 274.629 C 34.733 287.276 37.467 299.775 41.088 312.029 C 41.108 312.079 41.128 312.129 41.138 312.179 C 41.708 314.119 42.308 316.039 42.918 317.949 C 42.958 318.059 42.998 318.179 43.028 318.289 C 43.058 318.399 43.098 318.509 43.138 318.629 C 43.698 320.359 44.288 322.079 44.878 323.809 C 45.028 324.239 45.178 324.679 45.338 325.119 C 45.868 326.609 46.408 328.099 46.968 329.599 C 47.228 330.269 47.478 330.939 47.728 331.619 C 48.218 332.859 48.688 334.089 49.178 335.319 C 49.548 336.249 49.928 337.179 50.318 338.099 C 50.718 339.069 51.118 340.019 51.528 340.989 C 52.028 342.169 52.558 343.339 53.078 344.519 C 53.388 345.219 53.708 345.909 54.018 346.609 C 54.658 348.019 55.318 349.429 55.988 350.829 C 56.208 351.279 56.418 351.729 56.638 352.169 C 57.418 353.789 58.208 355.379 59.008 356.969 C 59.148 357.209 59.258 357.459 59.388 357.699 C 60.288 359.459 61.208 361.209 62.158 362.949 C 62.198 363.029 62.248 363.099 62.278 363.189 C 62.478 363.549 62.698 363.899 62.898 364.259 L 198.088 282.829 L 198.588 282.529 C 193.258 271.289 189.938 259.329 188.698 247.179 L 188.698 247.179 Z" fill="#93d500" transform="matrix(1.0000000000000002, 0, 0, 1.0000000000000002, 0, 0)"/>
	<path d="M 227.608 319.849 L 227.228 320.229 L 115.728 431.719 C 116.298 432.249 116.868 432.799 117.458 433.309 C 118.498 434.259 119.558 435.189 120.608 436.119 C 121.158 436.599 121.688 437.079 122.238 437.559 C 123.498 438.649 124.778 439.709 126.048 440.779 C 126.398 441.069 126.728 441.349 127.078 441.639 C 128.699 442.972 130.336 444.286 131.988 445.579 C 133.568 446.829 135.158 448.039 136.778 449.259 C 136.848 449.299 136.898 449.339 136.958 449.389 C 143.686 454.415 150.647 459.12 157.818 463.489 C 158.058 463.649 158.308 463.789 158.558 463.949 C 159.928 464.759 161.288 465.569 162.668 466.369 L 165.188 467.809 C 165.988 468.269 166.778 468.709 167.578 469.149 C 169.028 469.939 170.478 470.729 171.938 471.499 C 172.138 471.609 172.338 471.719 172.548 471.819 C 176.598 473.939 180.718 475.909 184.878 477.809 L 188.838 468.199 L 244.918 332.029 L 245.118 331.529 C 238.998 328.249 233.128 324.369 227.608 319.849 L 227.608 319.849 Z" fill="#4d5a31" transform="matrix(1.0000000000000002, 0, 0, 1.0000000000000002, 0, 0)"/>
	<path d="M 215.998 308.739 C 214.8 307.405 213.64 306.038 212.518 304.639 C 211.518 303.409 210.558 302.169 209.628 300.909 C 208.558 299.469 207.518 298.009 206.528 296.529 C 205.538 295.039 204.558 293.539 203.638 292.019 L 68.278 373.549 C 70.358 377.009 72.518 380.369 74.738 383.689 C 74.808 383.809 74.878 383.929 74.958 384.039 C 74.978 384.089 75.008 384.119 75.038 384.169 C 75.108 384.269 75.178 384.389 75.248 384.499 C 75.258 384.509 75.268 384.519 75.268 384.539 C 75.448 384.799 75.628 385.059 75.808 385.329 C 75.818 385.339 75.828 385.359 75.848 385.379 C 75.868 385.399 75.858 385.389 75.858 385.399 C 78.208 388.869 80.628 392.289 83.118 395.629 C 83.168 395.699 83.228 395.769 83.278 395.839 C 83.338 395.909 83.388 395.979 83.438 396.049 C 84.528 397.479 85.608 398.909 86.728 400.329 C 86.878 400.519 87.018 400.699 87.178 400.879 C 88.318 402.349 89.488 403.799 90.678 405.229 C 90.958 405.569 91.248 405.909 91.528 406.259 C 92.598 407.539 93.668 408.809 94.758 410.069 C 95.228 410.609 95.708 411.159 96.188 411.689 C 97.118 412.749 98.038 413.809 98.988 414.849 C 99.508 415.419 100.048 415.999 100.578 416.569 C 100.818 416.839 101.058 417.089 101.308 417.359 C 101.998 418.109 102.688 418.859 103.388 419.599 C 103.668 419.889 103.968 420.179 104.248 420.479 C 105.478 421.759 106.728 423.049 107.988 424.309 L 219.658 312.659 C 218.378 311.379 217.178 310.059 215.998 308.739 L 215.998 308.739 Z" fill="#6ba43a" transform="matrix(1.0000000000000002, 0, 0, 1.0000000000000002, 0, 0)"/>
	<path d="M 364.008 319.789 C 362.778 320.779 361.538 321.749 360.278 322.679 L 360.548 323.149 L 441.968 458.279 C 445.738 455.819 449.468 453.279 453.108 450.609 C 460.988 444.799 468.608 438.499 475.958 431.719 L 364.448 320.229 L 364.008 319.789 Z" fill="#4d5a31" transform="matrix(1.0000000000000002, 0, 0, 1.0000000000000002, 0, 0)"/>
	<path d="M 430.138 459.389 L 427.378 454.799 L 351.378 328.669 C 349.838 329.589 348.268 330.429 346.698 331.269 C 345.108 332.129 343.518 332.919 341.898 333.689 C 327.298 340.609 311.498 344.149 295.668 344.149 C 285.298 344.149 274.938 342.649 264.918 339.659 C 263.208 339.149 261.538 338.479 259.858 337.879 C 258.168 337.289 256.458 336.769 254.798 336.089 L 198.758 472.169 L 196.568 477.499 L 194.688 482.069 L 194.678 482.089 C 194.818 482.149 194.968 482.199 195.108 482.259 C 195.268 482.319 195.418 482.369 195.568 482.439 L 195.588 482.439 C 195.628 482.459 195.668 482.469 195.698 482.479 C 197.018 483.029 198.348 483.489 199.678 484.009 C 201.348 484.659 203.008 485.319 204.678 485.929 C 205.538 486.239 206.378 486.599 207.228 486.899 L 207.238 486.899 C 224.801 493.097 242.963 497.444 261.428 499.869 C 262.158 499.959 262.868 500.059 263.598 500.159 C 264.348 500.249 265.108 500.319 265.868 500.409 C 267.288 500.569 268.708 500.729 270.138 500.869 L 271.198 500.959 C 272.948 501.129 274.698 501.279 276.438 501.399 C 277.038 501.449 277.638 501.469 278.228 501.519 C 279.758 501.619 281.288 501.709 282.818 501.779 C 283.758 501.839 284.698 501.859 285.638 501.899 C 286.858 501.939 288.068 501.989 289.288 502.029 C 291.038 502.069 292.808 502.079 294.568 502.089 C 294.988 502.089 295.398 502.099 295.818 502.109 C 310.568 502.109 325.318 500.879 339.908 498.429 C 340.148 498.389 340.398 498.349 340.648 498.319 C 342.188 498.049 343.728 497.759 345.268 497.479 C 346.148 497.309 347.038 497.139 347.898 496.969 C 348.798 496.779 349.708 496.599 350.608 496.399 C 352.108 496.089 353.608 495.759 355.118 495.409 C 355.388 495.349 355.658 495.299 355.928 495.219 C 378.108 490.059 399.528 482.059 419.648 471.469 L 419.648 471.459 C 420.968 470.769 422.258 469.979 423.568 469.259 C 425.128 468.409 426.678 467.519 428.238 466.629 C 429.308 466.019 430.398 465.449 431.468 464.809 C 431.478 464.799 431.488 464.789 431.498 464.789 L 431.508 464.789 C 431.528 464.779 431.538 464.769 431.558 464.759 L 431.578 464.739 L 431.378 464.409 L 431.578 464.739 C 431.588 464.739 431.598 464.729 431.608 464.729 C 431.628 464.719 431.638 464.709 431.658 464.699 C 431.718 464.659 431.778 464.629 431.838 464.589 C 432.178 464.379 432.528 464.179 432.878 463.969 L 430.138 459.389 Z M 227.668 153.169 C 228.898 152.169 230.148 151.209 231.398 150.269 L 231.128 149.809 L 149.708 14.669 C 145.928 17.139 142.198 19.689 138.548 22.359 C 130.678 28.159 123.048 34.449 115.718 41.219 L 227.228 152.719 L 227.668 153.169 Z" fill="#93d500" transform="matrix(1.0000000000000002, 0, 0, 1.0000000000000002, 0, 0)"/>
	<path d="M 107.988 48.649 C 106.718 49.919 105.518 51.229 104.278 52.509 C 103.048 53.799 101.788 55.079 100.578 56.379 C 92.437 65.18 84.9 74.521 78.018 84.339 C 77.688 84.789 77.368 85.269 77.038 85.729 C 76.278 86.849 75.518 87.959 74.778 89.079 C 73.998 90.239 73.228 91.419 72.478 92.589 C 72.198 93.019 71.918 93.459 71.648 93.889 C 45.998 134.119 32.258 179.749 30.408 225.759 C 30.338 227.549 30.298 229.339 30.258 231.119 C 30.228 232.899 30.168 234.689 30.168 236.469 L 188.098 236.469 C 188.098 234.689 188.258 232.909 188.358 231.119 C 188.448 229.329 188.468 227.539 188.648 225.759 C 190.688 205.199 198.628 185.119 212.468 168.259 C 213.588 166.889 214.858 165.599 216.068 164.279 C 217.258 162.949 218.378 161.579 219.658 160.299 L 107.988 48.649 Z M 433.838 9.449 C 433.628 9.319 433.398 9.189 433.188 9.059 C 431.798 8.209 430.398 7.389 428.988 6.569 C 428.178 6.099 427.358 5.639 426.548 5.179 C 425.718 4.719 424.908 4.259 424.078 3.809 C 422.65 3.031 421.22 2.258 419.788 1.489 C 419.558 1.379 419.338 1.259 419.108 1.139 C 409.848 -3.701 400.338 -7.961 390.628 -11.661 C 390.378 -11.761 390.128 -11.861 389.878 -11.951 C 387.758 -12.741 385.638 -13.531 383.498 -14.271 C 366.241 -20.291 348.41 -24.523 330.288 -26.901 L 328.068 -27.201 C 327.318 -27.291 326.578 -27.361 325.838 -27.441 C 324.408 -27.611 322.988 -27.771 321.548 -27.911 C 321.158 -27.951 320.758 -27.971 320.348 -28.021 C 318.658 -28.171 316.948 -28.321 315.248 -28.451 L 313.258 -28.571 C 311.808 -28.661 310.328 -28.771 308.878 -28.831 C 308.098 -28.871 307.318 -28.901 306.548 -28.921 L 306.548 129.369 C 314.668 130.209 322.718 131.939 330.528 134.589 L 447.038 18.099 C 442.708 15.099 438.338 12.179 433.838 9.449 L 433.838 9.449 Z" fill="#4d5a31" transform="matrix(1.0000000000000002, 0, 0, 1.0000000000000002, 0, 0)"/>
	<path d="M 290.488 -29.051 C 288.698 -29.011 286.908 -29.011 285.128 -28.941 C 273.958 -28.491 262.808 -27.351 251.748 -25.491 C 251.508 -25.451 251.268 -25.411 251.018 -25.371 C 249.468 -25.101 247.928 -24.821 246.388 -24.531 C 245.518 -24.361 244.638 -24.201 243.758 -24.031 C 242.848 -23.851 241.948 -23.661 241.038 -23.461 C 239.538 -23.151 238.038 -22.821 236.548 -22.471 C 236.268 -22.421 235.998 -22.351 235.728 -22.291 C 213.56 -17.116 192.144 -9.131 171.998 1.469 C 170.688 2.169 169.408 2.959 168.098 3.669 C 166.538 4.529 164.978 5.409 163.428 6.299 C 162.278 6.969 161.108 7.579 159.958 8.259 C 159.948 8.269 159.928 8.279 159.918 8.279 C 159.838 8.329 159.758 8.379 159.678 8.419 C 159.378 8.609 159.068 8.759 158.768 8.939 L 158.778 8.959 L 161.548 13.549 L 240.298 144.279 C 241.838 143.359 243.408 142.509 244.978 141.669 C 246.558 140.819 248.158 140.019 249.768 139.259 C 260.898 133.947 272.86 130.595 285.128 129.349 C 286.908 129.169 288.688 129.019 290.478 128.929 C 292.258 128.839 294.048 128.749 295.838 128.749 L 295.838 -29.161 C 294.048 -29.161 292.268 -29.081 290.488 -29.051 L 290.488 -29.051 Z" fill="#6ba43a" transform="matrix(1.0000000000000002, 0, 0, 1.0000000000000002, 0, 0)"/>
	<path d="M 561.178 223.419 C 561.098 221.999 561.018 220.589 560.918 219.159 C 560.882 218.451 560.835 217.745 560.778 217.039 C 560.668 215.369 560.528 213.699 560.368 212.029 C 560.338 211.599 560.298 211.169 560.258 210.739 C 560.078 208.869 559.878 207.009 559.658 205.149 C 559.638 204.999 559.628 204.849 559.608 204.699 L 559.578 204.489 C 559.338 202.479 559.068 200.469 558.788 198.469 L 558.758 198.279 C 556.935 185.656 554.208 173.181 550.598 160.949 C 550.568 160.859 550.548 160.789 550.518 160.709 C 549.948 158.799 549.358 156.909 548.768 155.019 C 548.678 154.769 548.598 154.519 548.518 154.269 C 547.958 152.559 547.388 150.859 546.798 149.159 L 546.318 147.779 C 545.798 146.309 545.258 144.839 544.718 143.369 C 544.448 142.669 544.188 141.969 543.908 141.279 C 543.448 140.059 542.978 138.849 542.488 137.649 C 542.108 136.679 541.718 135.729 541.328 134.789 C 540.938 133.839 540.538 132.909 540.148 131.969 C 539.628 130.769 539.098 129.569 538.568 128.379 C 538.268 127.709 537.968 127.029 537.658 126.349 C 537.008 124.929 536.338 123.499 535.668 122.079 C 535.458 121.659 535.248 121.219 535.038 120.789 C 534.258 119.169 533.458 117.539 532.638 115.939 C 532.528 115.719 532.408 115.489 532.298 115.269 C 531.388 113.499 530.448 111.719 529.508 109.969 C 529.468 109.909 529.438 109.839 529.398 109.779 C 524.806 101.339 519.762 93.154 514.288 85.259 L 397.748 201.799 C 400.398 209.609 402.118 217.659 402.958 225.769 L 561.278 225.769 C 561.238 224.979 561.218 224.189 561.178 223.419 L 561.178 223.419 Z" fill="#4d5a31" transform="matrix(1.0000000000000002, 0, 0, 1.0000000000000002, 0, 0)"/>
	<path d="M 403.578 236.469 C 403.578 238.259 403.408 240.039 403.318 241.829 C 403.228 243.619 403.198 245.409 403.018 247.179 C 400.978 267.749 393.048 287.829 379.208 304.699 C 378.088 306.069 376.818 307.349 375.608 308.679 C 374.408 309.999 373.298 311.369 372.018 312.649 L 483.688 424.299 C 484.958 423.029 486.148 421.719 487.388 420.429 C 488.628 419.139 489.888 417.869 491.088 416.559 C 499.348 407.609 506.908 398.249 513.708 388.519 C 513.988 388.129 514.238 387.749 514.508 387.369 C 515.338 386.179 516.138 384.969 516.958 383.769 C 517.668 382.689 518.378 381.619 519.068 380.529 C 519.418 380.009 519.758 379.469 520.088 378.949 C 545.698 338.739 559.408 293.159 561.248 247.179 C 561.318 245.399 561.358 243.609 561.388 241.819 C 561.428 240.039 561.478 238.259 561.478 236.469 L 403.578 236.469 Z" fill="#6ba43a" transform="matrix(1.0000000000000002, 0, 0, 1.0000000000000002, 0, 0)"/>
	<path d="M 608.398 -76.061 C 579.508 -104.951 532.668 -104.951 503.778 -76.061 C 480.728 -53.021 476.118 -18.571 489.848 9.089 L 328.688 170.239 C 301.028 156.519 266.568 161.119 243.518 184.159 C 214.628 213.049 214.638 259.889 243.518 288.779 C 272.418 317.669 319.268 317.659 348.158 288.779 C 371.208 265.729 375.808 231.279 362.078 203.619 L 523.238 42.479 C 550.908 56.199 585.348 51.599 608.398 28.549 C 637.288 -0.331 637.288 -47.171 608.398 -76.061 L 608.398 -76.061 Z" fill="#424143" transform="matrix(1.0000000000000002, 0, 0, 1.0000000000000002, 0, 0)"/>
</svg>