<?xml version="1.0" encoding="utf-8"?>
<svg viewBox="130.3166 176.4737 207.0598 91.2942" width="207.06" height="91.294"
	xmlns="http://www.w3.org/2000/svg">
	<g fill="none" stroke="black" stroke-width="1" fill-rule="evenodd" stroke-linecap="square" stroke-linejoin="bevel" transform="matrix(2.5882480144500737, 0, 0, 2.5882480144500737, 109.61060823249534, 182.35569052498116)" style="">
		<g fill="#000000" fill-opacity="1" stroke="#000000" stroke-opacity="1" stroke-width="1" stroke-linecap="square" stroke-linejoin="miter" stroke-miterlimit="2" transform="matrix(1,0,0,1,0,0)"/>
		<g fill="#000000" fill-opacity="1" stroke="#000000" stroke-opacity="1" stroke-width="1" stroke-linecap="square" stroke-linejoin="miter" stroke-miterlimit="2" transform="matrix(1,0,0,1,0,0)"/>
		<g fill="#000000" fill-opacity="1" stroke="#000000" stroke-opacity="1" stroke-width="1" stroke-linecap="square" stroke-linejoin="miter" stroke-miterlimit="2" transform="matrix(1,0,0,1,0,0)"/>
		<g fill="#43587a" fill-opacity="1" stroke="none" transform="matrix(1,0,0,1,0,0)">
			<path vector-effect="none" fill-rule="evenodd" d="M8,-2 L88,-2 L88,33 L8,33 L8,-2"/>
		</g>
		<g fill="#ffffff" fill-opacity="1" stroke="#ffffff" stroke-opacity="1" stroke-width="1" stroke-linecap="square" stroke-linejoin="bevel" transform="matrix(1,0,0,1,0,0)">
			<text fill="#ffffff" fill-opacity="1" stroke="none" x="13" y="24" font-family="Arial" font-size="29" font-weight="400" font-style="normal" style="white-space: pre;">jsoup</text>
		</g>
		<g fill="#000000" fill-opacity="1" stroke="#000000" stroke-opacity="1" stroke-width="1" stroke-linecap="square" stroke-linejoin="miter" stroke-miterlimit="2" transform="matrix(1,0,0,1,0,0)"/>
		<g fill="#000000" fill-opacity="1" stroke="#000000" stroke-opacity="1" stroke-width="1" stroke-linecap="square" stroke-linejoin="miter" stroke-miterlimit="2" transform="matrix(1,0,0,1,0,0)"/>
		<g fill="#000000" fill-opacity="1" stroke="#000000" stroke-opacity="1" stroke-width="1" stroke-linecap="square" stroke-linejoin="miter" stroke-miterlimit="2" transform="matrix(1,0,0,1,0,0)"/></g>
</svg>