<svg xmlns="http://www.w3.org/2000/svg" viewBox="0 0 248.31 253.74"><defs><style>.cls-1{fill:#f9a51a;}.cls-1,.cls-2{fill-rule:evenodd;}.cls-2{fill:#bb2726;}</style></defs><g id="Layer_2" data-name="Layer 2"><g id="Layer_1-2" data-name="Layer 1"><path d="M75.27,240.76c-1.42.64-2.58,1.14-3.65,1.64a40.61,40.61,0,0,1,6.56,11.25A24.58,24.58,0,0,1,84,251.06S78.48,243.18,75.27,240.76Zm-22,12.75a25.55,25.55,0,0,1,6.12-1.57s-2.75-7.87-4.17-10.84c-1.49.43-4.35,1.3-4.35,1.3A41.67,41.67,0,0,1,53.28,253.51Zm-18.07-2.19c2.33.18,6.14,2.33,6.14,2.33s4.21-5.67,5.72-11.25c-1.58-.64-2.06-.87-3.65-1.64A44.37,44.37,0,0,1,35.21,251.32Zm127.46-6.92a57.74,57.74,0,0,0,7.74-12.79v22.13l5.34-2.3V227.68l1.8,5.41,2.38-1v9.72h10.3V218.67h-10.3v7.68l-4.18-8.42v-1.68h6.88l-1.33-2.43h-5.55V202.5c0-.5-.65-.22-.65-.22l-7.94,3.11s-.58.22-.14.39c.6.23,1.69.62,2.24.81,1.1.41,1.15,1.23,1.15,2.29v4.94h-7.16l1.31,2.43h5.7c-.64,3.43-3.32,16.14-9.88,27Zm21.56-23.06h1.7v17.81h-1.7ZM34.94,235.86l1.46,2.66H83.86c1.62,0,1.35-.54.58-1.3l-4.18-4.13c-.18-.18-.32-.17-.44,0l-.95,1A5.51,5.51,0,0,1,76,235.63V224.4h5.37L80,221.9H76V210H81c1.74,0,1.31-.61.45-1.46l-4-4c-.18-.17-.32-.15-.44,0l-1.49,1.59a5.64,5.64,0,0,1-3.79,1.22h-25a21.51,21.51,0,0,0,1.67-4.25L42.57,201c-.74,3.76-1.4,9.13-6.91,16.1l1,2a29.63,29.63,0,0,0,6-5.53v8.35H36.7l1.37,2.5H42.6v11.46ZM66.59,210h3.86V221.9H66.59Zm0,14.38h3.86v11.46H66.59ZM57.5,210h3.86V221.9H57.5Zm0,14.38h3.86v11.46H57.5ZM48.17,210h4.09V221.9H48.17Zm0,14.38h4.09v11.46H48.17Zm12.89,18a44.6,44.6,0,0,1,4.66,11.11,20.27,20.27,0,0,1,6-1.57A103,103,0,0,0,65.3,241.1C64,241.48,62.21,242,61.06,242.4Zm54.64-22.87,3.15-14.73-4.55-2.41c-.38-.21-.7-.1-.75.3l0,.27c-.12,1.14-1.69,1.59-3.68,1.59H98.63c-.5,0-.79.34-.19.62.82.37,1.79.94,2.49,1.34,1.44.77,1.55,2.28,1.55,3.66v43.57l5.88-2.21V209.67a5.94,5.94,0,0,0-.6-2.69h5.32l-1.37,12.55h-2.33l1.33,2.66h3.17A119.42,119.42,0,0,1,110,241.87a9.47,9.47,0,0,1,1.37,1.84c6.59-9.86,7.92-24.18,7.92-24.18Zm31,27.67a38.41,38.41,0,0,1-8.39-7.33,39.53,39.53,0,0,0,8.9-3.84l-3.14-4.37a28.76,28.76,0,0,1-7.66,5.76,27.45,27.45,0,0,1-3.76-7.55h5.89c2.89,0,5.24-1.43,5.24-4V207.18h.84c1.73,0,1.3-.61.44-1.47l-4-4c-.19-.18-.32-.16-.45,0l-1.4,1.5a4.79,4.79,0,0,1-3.71,1.55H120.84v42.91l-3.53,1.39,3.88,4.24,12.72-8-1.74-2.07-5.76,2.25V218.78h10l1.33-2.49H126.41v-9.11h11.81v19.1c0,.72-.65,1.16-1.47,1.16h-8.68c.06.58,1.25,15.43,16.3,25.19a24.13,24.13,0,0,1,5.69-3.57C149.26,248.67,147.34,247.63,146.71,247.2Zm41.18-39.54-2.71,5.06c-1.43,2.65-1,3.56,3.68,3.56h3.3v26.49a1.17,1.17,0,0,1-1.23,1.23h-6.11l1.36,2.49h6.14c3.2,0,5-2.31,5-5.17v-27.5h-7.36l4.24-6.16h16.48c1.73,0,1.3-.61.43-1.47l-4-4c-.18-.17-.32-.16-.43,0l-1.5,1.59a5.74,5.74,0,0,1-3.92,1.22h-23l1.46,2.67ZM212.64,250l-4.06-4c-.18-.16-.32-.15-.43,0h0l-1.5,1.59a5.79,5.79,0,0,1-3.9,1.22H178.31l1.46,2.66h32.41C213.89,251.44,213.49,250.83,212.64,250Zm-13.16-4.8a27,27,0,0,0,4.1-5.66,40,40,0,0,0,2.18,4.58l5.72-2a68.93,68.93,0,0,1-5.1-8.77,59.42,59.42,0,0,0,3.15-19.5l-3.83-2.16c-.38-.2-.72-.09-.76.3l0,.28c-.11,1.14-1.69,1.58-3.68,1.58H197.6l1.34,2.46h5.5a84.19,84.19,0,0,1-1,10.3,60.45,60.45,0,0,1-2.26-7.41l-2.79.67a86.36,86.36,0,0,0,3.33,14.59,35.43,35.43,0,0,1-4.07,9.61Z"/><path d="M241.48,166l-7.64-1.9a2.29,2.29,0,0,1-2-2.56v-.87c0-1.22.76-1.56,1.87-1.56h10.11a6.57,6.57,0,0,1,4.07,1.21v-4.59h-18a5.49,5.49,0,0,0-5.48,5.49v1.85c0,3.76-.23,6.79,6.85,8.52l7.63,1.91a2.38,2.38,0,0,1,2,2.55v.81a1.69,1.69,0,0,1-1.82,1.84H228.61a6.6,6.6,0,0,1-4.28-1.47v4.83h18.51a5.72,5.72,0,0,0,5.47-5.75v-1.76C248.31,170.76,248.35,167.81,241.48,166ZM10.2,156.36c.2-.25.35-.39.3-.51s-.16-.11-.49-.11H.5c-.32,0-.47,0-.49.11s.1.26.3.51a4.66,4.66,0,0,1,1.1,2.93v19.24a4.7,4.7,0,0,1-1.1,2.93c-.2.24-.35.38-.3.51s.17.1.49.1H10c.33,0,.47,0,.49-.1s-.1-.27-.3-.51a4.7,4.7,0,0,1-1.1-2.93V159.29A4.66,4.66,0,0,1,10.2,156.36Zm85,0c.21-.25.35-.39.31-.51s-.17-.11-.5-.11h-9.5c-.33,0-.47,0-.51.11s.11.26.31.51a4.66,4.66,0,0,1,1.1,2.93v19.24a4.7,4.7,0,0,1-1.1,2.93c-.2.24-.35.38-.31.51s.18.1.51.1H95c.33,0,.47,0,.5-.1s-.1-.27-.31-.51a4.75,4.75,0,0,1-1.09-2.93V159.29A4.71,4.71,0,0,1,95.17,156.36Zm56.32,0c.2-.25.34-.39.3-.51s-.18-.11-.5-.11h-9.51c-.32,0-.47,0-.49.11s.1.26.3.51a4.65,4.65,0,0,1,1.09,2.93v19.24a4.69,4.69,0,0,1-1.09,2.93c-.2.24-.35.38-.3.51s.17.1.49.1h9.51c.32,0,.47,0,.5-.1s-.1-.27-.3-.51a4.65,4.65,0,0,1-1.1-2.93V159.29A4.61,4.61,0,0,1,151.49,156.36Zm6,4a6.54,6.54,0,0,1,4.06-1.21h5.23v19.41a4.7,4.7,0,0,1-1.1,2.93c-.2.24-.35.38-.3.51s.18.1.49.1h9.5c.33,0,.47,0,.5-.1s-.11-.27-.3-.51a4.65,4.65,0,0,1-1.1-2.93V159.12h5.36a6.6,6.6,0,0,1,4.07,1.21v-4.59H157.52ZM55,155.85c0,.12.11.26.31.51a4.71,4.71,0,0,1,1.09,2.93v19.24a4.75,4.75,0,0,1-1.09,2.93c-.2.24-.35.38-.31.51s.18.1.5.1H65c.33,0,.48,0,.5-.1s-.1-.27-.3-.51a4.72,4.72,0,0,1-1.11-2.93v-8.07h8.66a11.23,11.23,0,0,1,4,.62v-4.61a10.78,10.78,0,0,1-4,.6H64.09v-7.95h9.55a6.54,6.54,0,0,1,4.06,1.21v-4.59H55.5C55.18,155.74,55,155.77,55,155.85Zm156.06-.11c-.33,0-.47,0-.49.11s.1.26.3.51a4.65,4.65,0,0,1,1.09,2.93v18.28c0,.74-.37,1.14-1.2,1.14H198.89c-.83,0-1.19-.4-1.19-1.14V159.29a4.66,4.66,0,0,1,1.1-2.93c.21-.25.35-.39.3-.51s-.17-.11-.5-.11h-9.5c-.32,0-.47,0-.5.11s.1.26.3.51a4.66,4.66,0,0,1,1.1,2.93v18.22a4.6,4.6,0,0,0,4.76,4.56h16a4.61,4.61,0,0,0,4.75-4.56V159.29a4.66,4.66,0,0,1,1.1-2.93c.19-.25.34-.39.3-.51s-.17-.11-.5-.11Zm-163.47.62c.2-.25.36-.39.31-.51s-.17-.11-.5-.11H42.07c-.33,0-.47,0-.5.11s.1.26.3.51a4.66,4.66,0,0,1,1.1,2.93v17.34h-.11L32.11,159.57h0c-1.79-2.82-3.71-3.83-6.57-3.83H19.66c-.32,0-.47,0-.5.11s.11.26.31.51a4.65,4.65,0,0,1,1.09,2.93v18.06a6.16,6.16,0,0,1-1.46,3.89c-.26.33-.45.53-.4.69s.23.14.66.14H25c.33,0,.46,0,.5-.1s-.11-.27-.31-.51a4.68,4.68,0,0,1-1.1-2.93V160.77h.08l11,17.49c1.79,2.81,3.72,3.81,6.56,3.81H47.4c.33,0,.46,0,.5-.1s-.11-.27-.31-.51a4.7,4.7,0,0,1-1.1-2.93V159.29A4.66,4.66,0,0,1,47.59,156.36Zm84.87,0c.21-.25.35-.39.31-.51s-.17-.11-.49-.11h-5.34c-.32,0-.47,0-.5.11s.11.26.31.51a4.71,4.71,0,0,1,1.09,2.93l0,17.34h-.11L117,159.57h0c-1.79-2.82-3.7-3.83-6.56-3.83h-5.89c-.32,0-.47,0-.5.11s.11.26.31.51a4.66,4.66,0,0,1,1.1,2.93v18.06a6.22,6.22,0,0,1-1.46,3.89c-.27.33-.46.53-.41.69s.23.14.67.14h5.63c.33,0,.46,0,.49-.1s-.1-.27-.3-.51a4.74,4.74,0,0,1-1.1-2.93V160.77h.09l11,17.49c1.79,2.81,3.73,3.81,6.56,3.81h5.65c.32,0,.46,0,.49-.1s-.1-.27-.31-.51a4.69,4.69,0,0,1-1.09-2.93V159.29A4.65,4.65,0,0,1,132.46,156.36Z"/><path class="cls-1" d="M125,111.77c11-28.82,27.61-58.25,51.18-81.6.16-.17.52-.6.23-1s-.85-.12-1.06,0c-29,13.55-47.42,37.29-51.22,42.41-3.81-5.12-22.2-28.86-51.23-42.41-.21-.1-.76-.37-1.06,0s.07.79.23,1c23.58,23.35,40.2,52.78,51.19,81.6,0,0,.29.87.87.87S125,111.77,125,111.77Z"/><path class="cls-1" d="M122.11,1c-3,3.32-4.37,15-3.22,28.37.43,4.9,2.7,29.33,5.27,29.33s4.84-24.43,5.26-29.33h0c1.16-13.38-.17-25-3.21-28.37a2.82,2.82,0,0,0-2-1A2.79,2.79,0,0,0,122.11,1Z"/><path class="cls-2" d="M113.68,105.28s-20.94-41-57-60.71c0,0-.85-.52-1.2,0s.45,1.34.45,1.34A189.38,189.38,0,0,1,84.44,91.42a.62.62,0,0,1,.09.27.35.35,0,0,1,0,.06s-.07.07-.16.1l-1.08.3c-46.7,13-71.2,30.42-81.64,41.27,0,0-.59.61-.29,1s1.07.1,1.07.1c47-22.22,99.86-26.57,110.37-27.22C112.79,107.31,114.75,107.32,113.68,105.28Z"/><path class="cls-2" d="M22.3,72a2.84,2.84,0,0,0-1.55,1.74,2.87,2.87,0,0,0,.46,2.3c2.41,3.77,13,8,25.85,10.24h0c2.88.5,28.27,4.87,29,2.32S52.55,77.14,49.78,76.12C37.57,71.65,26.27,70,22.3,72Z"/><path class="cls-2" d="M135.53,107.31c10.51.65,63.41,5,110.36,27.22,0,0,.71.36,1.08-.1s-.3-1-.3-1c-10.44-10.85-34.94-28.23-81.63-41.27l-1.09-.3a.36.36,0,0,1-.16-.1v-.06a.53.53,0,0,1,.1-.27,188.76,188.76,0,0,1,28.52-45.51s.79-.83.44-1.34-1.2,0-1.2,0c-36.08,19.74-57,60.71-57,60.71C133.57,107.32,135.53,107.31,135.53,107.31Z"/><path class="cls-2" d="M198.53,76.12c-2.76,1-26.9,9.94-26.23,12.5s26.07-1.82,29-2.32h0C214.07,84,224.7,79.83,227.1,76.06A2.61,2.61,0,0,0,226,72C222.05,70,210.75,71.65,198.53,76.12Z"/></g></g></svg>