<?xml version="1.0" encoding="windows-1252" standalone="no"?>
<svg xmlns="http://www.w3.org/2000/svg" xmlns:xlink="http://www.w3.org/1999/xlink" contentStyleType="text/css" height="311px" preserveAspectRatio="none" style="width:533px;height:311px;background:#FFFFFF;" version="1.1" viewBox="0 0 533 311" width="533px" zoomAndPan="magnify"><defs/><g><line style="stroke:#181818;stroke-width:0.5;stroke-dasharray:5.0,5.0;" x1="53" x2="53" y1="67.2969" y2="232.9609"/><line style="stroke:#181818;stroke-width:0.5;stroke-dasharray:5.0,5.0;" x1="207.5" x2="207.5" y1="67.2969" y2="232.9609"/><line style="stroke:#181818;stroke-width:0.5;stroke-dasharray:5.0,5.0;" x1="298.5" x2="298.5" y1="67.2969" y2="232.9609"/><line style="stroke:#181818;stroke-width:0.5;stroke-dasharray:5.0,5.0;" x1="447.5" x2="447.5" y1="67.2969" y2="232.9609"/><rect fill="#E2E2F0" height="30.2969" rx="2.5" ry="2.5" style="stroke:#181818;stroke-width:0.5;" width="97" x="5" y="36"/><text fill="#000000" font-family="sans-serif" font-size="14" lengthAdjust="spacing" textLength="83" x="12" y="55.9951">Application</text><rect fill="#E2E2F0" height="30.2969" rx="2.5" ry="2.5" style="stroke:#181818;stroke-width:0.5;" width="97" x="5" y="231.9609"/><text fill="#000000" font-family="sans-serif" font-size="14" lengthAdjust="spacing" textLength="83" x="12" y="251.9561">Application</text><text fill="#000000" font-family="sans-serif" font-size="14" lengthAdjust="spacing" textLength="68" x="170.5" y="63.9951">Database</text><path d="M189.5,15 C189.5,5 207.5,5 207.5,5 C207.5,5 225.5,5 225.5,15 L225.5,41 C225.5,51 207.5,51 207.5,51 C207.5,51 189.5,51 189.5,41 L189.5,15 " fill="#E2E2F0" style="stroke:#181818;stroke-width:1.5;"/><path d="M189.5,15 C189.5,25 207.5,25 207.5,25 C207.5,25 225.5,25 225.5,15 " fill="none" style="stroke:#181818;stroke-width:1.5;"/><text fill="#000000" font-family="sans-serif" font-size="14" lengthAdjust="spacing" textLength="68" x="170.5" y="244.9561">Database</text><path d="M189.5,258.2578 C189.5,248.2578 207.5,248.2578 207.5,248.2578 C207.5,248.2578 225.5,248.2578 225.5,258.2578 L225.5,284.2578 C225.5,294.2578 207.5,294.2578 207.5,294.2578 C207.5,294.2578 189.5,294.2578 189.5,284.2578 L189.5,258.2578 " fill="#E2E2F0" style="stroke:#181818;stroke-width:1.5;"/><path d="M189.5,258.2578 C189.5,268.2578 207.5,268.2578 207.5,268.2578 C207.5,268.2578 225.5,268.2578 225.5,258.2578 " fill="none" style="stroke:#181818;stroke-width:1.5;"/><rect fill="#E2E2F0" height="30.2969" rx="2.5" ry="2.5" style="stroke:#181818;stroke-width:0.5;" width="78" x="259.5" y="36"/><text fill="#000000" font-family="sans-serif" font-size="14" lengthAdjust="spacing" textLength="64" x="266.5" y="55.9951">Executor</text><rect fill="#E2E2F0" height="30.2969" rx="2.5" ry="2.5" style="stroke:#181818;stroke-width:0.5;" width="78" x="259.5" y="231.9609"/><text fill="#000000" font-family="sans-serif" font-size="14" lengthAdjust="spacing" textLength="64" x="266.5" y="251.9561">Executor</text><rect fill="#E2E2F0" height="30.2969" rx="2.5" ry="2.5" style="stroke:#181818;stroke-width:0.5;" width="160" x="367.5" y="36"/><text fill="#000000" font-family="sans-serif" font-size="14" lengthAdjust="spacing" textLength="146" x="374.5" y="55.9951">Third-party Web API</text><rect fill="#E2E2F0" height="30.2969" rx="2.5" ry="2.5" style="stroke:#181818;stroke-width:0.5;" width="160" x="367.5" y="231.9609"/><text fill="#000000" font-family="sans-serif" font-size="14" lengthAdjust="spacing" textLength="146" x="374.5" y="251.9561">Third-party Web API</text><polygon fill="#181818" points="195.5,94.4297,205.5,98.4297,195.5,102.4297,199.5,98.4297" style="stroke:#181818;stroke-width:1.0;"/><line style="stroke:#181818;stroke-width:1.0;" x1="53.5" x2="201.5" y1="98.4297" y2="98.4297"/><text fill="#000000" font-family="sans-serif" font-size="13" lengthAdjust="spacing" textLength="130" x="60.5" y="93.3638">INSERT INTO Outbox</text><polygon fill="#181818" points="286.5,123.5625,296.5,127.5625,286.5,131.5625,290.5,127.5625" style="stroke:#181818;stroke-width:1.0;"/><line style="stroke:#181818;stroke-width:1.0;" x1="207.5" x2="292.5" y1="127.5625" y2="127.5625"/><text fill="#000000" font-family="sans-serif" font-size="13" lengthAdjust="spacing" textLength="51" x="214.5" y="122.4966">DoWork</text><polygon fill="#181818" points="435.5,152.6953,445.5,156.6953,435.5,160.6953,439.5,156.6953" style="stroke:#181818;stroke-width:1.0;"/><line style="stroke:#181818;stroke-width:1.0;" x1="298.5" x2="441.5" y1="156.6953" y2="156.6953"/><text fill="#000000" font-family="sans-serif" font-size="13" lengthAdjust="spacing" textLength="123" x="305.5" y="151.6294">POST /api/payment</text><polygon fill="#181818" points="309.5,181.8281,299.5,185.8281,309.5,189.8281,305.5,185.8281" style="stroke:#181818;stroke-width:1.0;"/><line style="stroke:#181818;stroke-width:1.0;" x1="303.5" x2="446.5" y1="185.8281" y2="185.8281"/><text fill="#000000" font-family="sans-serif" font-size="13" lengthAdjust="spacing" textLength="125" x="315.5" y="180.7622">HTTP 202 Accepted</text><polygon fill="#181818" points="218.5,210.9609,208.5,214.9609,218.5,218.9609,214.5,214.9609" style="stroke:#181818;stroke-width:1.0;"/><line style="stroke:#181818;stroke-width:1.0;stroke-dasharray:2.0,2.0;" x1="212.5" x2="297.5" y1="214.9609" y2="214.9609"/><text fill="#000000" font-family="sans-serif" font-size="13" lengthAdjust="spacing" textLength="67" x="224.5" y="209.895">WorkDone</text><!--SRC=[VOmn2uCm48Nt-nM7krWS7GhH27MfKWFEPmmqs2P18-Y_RsCTsgNJktVVUy_HvBNKZep7Y3dtq9AyjYP2cf71G9vwcXL6_BXsa8FxxfMhaektqywANoPe7l_okvw6EBmsx5IFhAds60TW69ynpx2wjkLDl4NKM2- -joj07bYH8RUTdKOeWkKPDdKhC26d4qVRKnaF_0XUX6WmFQN8f5JEgo5qFljXWLkZNW00]--></g></svg>