<?xml version="1.0" encoding="utf-8"?>
<svg viewBox="-1552.7165 -562.7838 3668.7461 1464.4657" width="3668.746" height="1464.466"
	xmlns="http://www.w3.org/2000/svg">
	<g transform="matrix(1.0000000000000002, 0, 0, 1.0000000000000002, -2239.4092797968915, -802.9988762288768)">
		<g>
			<path fill="#414042" d="M2695.65,1225.759c0.13-31.109,8.265-59.059,24.416-83.879c16.207-25.447,38.061-45.404,65.623-59.983&#10;&#9;&#9;&#9;c27.571-14.691,56.901-22.044,87.947-22.177c23.76,0,46.339,3.938,67.731,12.204c21.132,7.748,40.363,19.3,57.69,34.916&#10;&#9;&#9;&#9;c17.063,15.616,30.386,33.349,39.773,53.551c9.381,19.951,14.18,42.143,14.301,66.299c0.067,23.624-4.658,45.677-14.171,66.146&#10;&#9;&#9;&#9;c-9.256,20.35-22.319,38.19-39.116,53.563c-16.806,15.345-35.964,27.124-57.496,35.131c-21.65,8.008-44.234,12.089-67.6,12.089&#10;&#9;&#9;&#9;c-22.904,0.118-45.348-3.805-67.399-11.69l-6.952-3.015l-7.03-3.012l0.466,128.629h-97.27L2695.65,1225.759z M2792.913,1227.601&#10;&#9;&#9;&#9;c0,14.446,3.804,27.428,11.419,38.859c7.481,12.074,17.584,21.522,30.184,28.615c12.406,7.076,25.733,10.625,39.913,10.489&#10;&#9;&#9;&#9;c14.304,0,27.621-3.669,40.226-10.76c12.604-7.221,22.582-16.669,30.128-28.742c7.416-11.812,11.093-24.806,11.093-38.989&#10;&#9;&#9;&#9;c-0.065-21.528-8.209-40.292-24.545-56.047c-16.082-15.616-35.177-23.361-57.362-23.229c-21.919,0-40.898,7.868-56.902,23.623&#10;&#9;&#9;&#9;C2800.924,1187.176,2792.783,1205.822,2792.913,1227.601z"/>
			<path fill="#414042" d="M3162.081,1009.049c-4.46,7.624-10.563,13.656-18.243,18.387c-7.675,4.721-16.206,7.081-25.596,7.081&#10;&#9;&#9;&#9;c-9.318,0-17.722-2.225-25.271-6.56c-7.804-4.736-13.903-10.901-18.372-18.511c-4.726-8.146-7.02-16.807-7.085-25.98&#10;&#9;&#9;&#9;c0-9.333,2.229-17.856,6.63-25.606c4.851-7.866,10.949-14.185,18.5-18.644c7.55-4.459,15.953-6.698,25.268-6.698&#10;&#9;&#9;&#9;c9.39-0.118,17.916,2.116,25.6,6.575c7.541,4.458,13.724,10.627,18.376,18.51c4.465,7.733,6.764,16.271,6.764,25.586&#10;&#9;&#9;&#9;C3168.709,992.899,3166.479,1001.578,3162.081,1009.049z M3168.65,1071.532l0.98,312.237l-97.132,0.395l-1.051-311.979&#10;&#9;&#9;&#9;L3168.65,1071.532z"/>
			<path fill="#414042" d="M3424.543,1164.466c-8.734-7.229-18.248-12.598-28.612-16.285c-10.839-3.666-22.191-5.369-34.2-5.369&#10;&#9;&#9;&#9;c-22.384,0-41.152,7.347-56.639,21.793c-15.553,14.567-23.301,32.418-23.231,53.684c0.059,16.665,3.478,31.627,10.176,44.747&#10;&#9;&#9;&#9;c6.561,13.136,16.206,23.639,29.068,31.371c12.409,7.884,26.773,11.686,43.059,11.686c23.886-0.136,44.357-7.745,61.366-23.099&#10;&#9;&#9;&#9;l53.612,67.469c-7.739,8.264-18.5,15.492-32.22,21.752c-14.05,6.304-28.418,11.02-43.183,14.185&#10;&#9;&#9;&#9;c-14.843,3.018-28.553,4.724-41.157,4.724c-35.37,0.124-66.611-7.234-93.589-21.92c-27.103-14.936-47.909-34.615-62.356-58.911&#10;&#9;&#9;&#9;c-14.502-24.669-21.846-51.181-21.909-79.401c-0.13-25.875,4.201-49.228,12.86-70.104c8.863-21.384,21.067-39.772,36.625-54.994&#10;&#9;&#9;&#9;c15.488-14.962,34.189-26.65,56.312-35.312c21.919-8.401,45.542-12.604,70.944-12.737c20.674,0,40.888,3.159,60.707,9.587&#10;&#9;&#9;&#9;c19.891,6.699,37.476,16.009,52.765,28.215L3424.543,1164.466z"/>
			<path fill="#414042" d="M3550.813,1370.116c-27.696-14.541-49.688-34.492-66.024-59.825&#10;&#9;&#9;&#9;c-16.538-25.595-24.875-54.21-24.949-85.841c-0.13-23.762,4.598-45.938,14.05-66.42c9.522-20.609,22.519-38.326,39.12-53.548&#10;&#9;&#9;&#9;c16.871-15.222,36.025-27.045,57.562-35.176c21.85-8.146,44.293-12.342,67.272-12.48c23.102,0,45.67,3.943,67.662,12.083&#10;&#9;&#9;&#9;c21.32,7.612,40.632,19.164,57.681,34.524c16.875,15.356,30.065,33.207,39.449,53.424c9.646,20.605,14.446,42.661,14.502,66.405&#10;&#9;&#9;&#9;c0.127,24.156-4.462,46.348-13.71,66.423c-9.259,20.341-22.385,38.329-39.448,54.078c-17.263,15.498-36.36,27.269-57.488,35.272&#10;&#9;&#9;&#9;c-21.269,8.417-43.78,12.602-67.543,12.602C3607.844,1391.776,3578.504,1384.548,3550.813,1370.116z M3581.521,1280.113&#10;&#9;&#9;&#9;c16.151,15.61,35.186,23.361,57.104,23.226c22.181,0,41.211-7.88,57.165-23.635c16.21-15.616,24.346-34.386,24.217-56.165&#10;&#9;&#9;&#9;c0-14.189-3.873-27.31-11.424-39.254c-7.541-11.936-17.644-21.398-30.248-28.48c-12.337-7.093-25.793-10.636-40.234-10.636&#10;&#9;&#9;&#9;c-14.041,0.133-27.3,3.805-39.904,10.896c-12.535,7.094-22.573,16.804-30.063,28.739c-7.481,11.947-11.158,25.079-11.158,39.252&#10;&#9;&#9;&#9;C3557.115,1245.854,3565.251,1264.482,3581.521,1280.113z"/>
			<path fill="#414042" d="M4072.313,1162.365c-8.727-7.215-18.308-12.723-28.684-16.285c-10.83-3.666-22.186-5.493-34.188-5.376&#10;&#9;&#9;&#9;c-22.307,0-41.158,7.359-56.571,21.785c-15.552,14.443-23.303,32.432-23.237,53.683c0.064,16.681,3.475,31.643,10.173,44.763&#10;&#9;&#9;&#9;c6.563,13.141,16.206,23.638,29.076,31.374c12.392,7.747,26.776,11.685,42.917,11.685c24.024-0.123,44.491-7.871,61.499-23.102&#10;&#9;&#9;&#9;l53.55,67.469c-7.677,8.129-18.437,15.481-32.22,21.62c-13.978,6.437-28.424,11.154-43.188,14.305&#10;&#9;&#9;&#9;c-14.829,3.029-28.548,4.598-41.144,4.735c-35.317,0-66.547-7.231-93.589-22.011c-27.051-14.845-47.845-34.521-62.356-58.813&#10;&#9;&#9;&#9;c-14.502-24.812-21.784-51.185-21.846-79.405c-0.139-25.863,4.135-49.228,12.793-70.23c8.867-21.266,21.133-39.649,36.693-55.01&#10;&#9;&#9;&#9;c15.413-14.823,34.191-26.635,56.303-35.173c21.855-8.401,45.553-12.589,70.885-12.728c20.738,0,40.952,3.142,60.639,9.577&#10;&#9;&#9;&#9;c20.013,6.696,37.542,16.015,52.901,28.098L4072.313,1162.365z"/>
			<path fill="#414042" d="M4140.828,947.618l97.195-0.519l1.391,431.937l-97.21,1.583L4140.828,947.618z"/>
			<path fill="#414042" d="M4347.83,1005.244c-4.395,7.485-10.504,13.519-18.251,18.387c-7.612,4.583-16.144,6.94-25.533,6.94&#10;&#9;&#9;&#9;c-9.313,0-17.706-2.087-25.262-6.549c-7.745-4.594-13.916-10.895-18.372-18.519c-4.727-8.128-7.028-16.808-7.094-25.984&#10;&#9;&#9;&#9;c0-9.327,2.166-17.853,6.634-25.598c4.854-7.875,10.96-14.037,18.511-18.644c7.544-4.464,15.943-6.684,25.262-6.684&#10;&#9;&#9;&#9;c9.389-0.139,17.921,2.087,25.595,6.561c7.551,4.459,13.71,10.636,18.381,18.504c4.459,7.748,6.758,16.271,6.758,25.604&#10;&#9;&#9;&#9;C4354.528,988.974,4352.298,997.635,4347.83,1005.244z M4354.458,1067.589l0.981,312.237l-97.132,0.396l-0.981-311.967&#10;&#9;&#9;&#9;L4354.458,1067.589z"/>
		</g>
		<g>
			<linearGradient id="SVGID_1_" gradientUnits="userSpaceOnUse" x1="630.8457" y1="1808.0273" x2="3051.0862" y2="612.9945">
				<stop offset="0" style="stop-color:#FFF33B"/>
				<stop offset="0.0044" style="stop-color:#F9A624"/>
				<stop offset="0.4785" style="stop-color:#F7941E"/>
				<stop offset="0.5408" style="stop-color:#F58523"/>
				<stop offset="0.7223" style="stop-color:#EE5B31"/>
				<stop offset="0.7726" style="stop-color:#ED5533"/>
				<stop offset="1" style="stop-color:#E93E3A"/>
			</linearGradient>
			<path fill="url(#SVGID_1_)" d="M2410.901,748.574h-628.288c-90.516,0-163.906,73.396-163.906,163.908v14.779&#10;&#9;&#9;&#9;c-31.193-80.519-65.565-192.922-93.694-344.16c-26.84,9.865-53.931,20.127-81.336,30.842c-6.067,2.372-12.11,4.775-18.15,7.182&#10;&#9;&#9;&#9;c54.186,226.019,120.365,447.322,193.181,574.949v344.699c0,90.527,73.39,163.908,163.906,163.908h628.288&#10;&#9;&#9;&#9;c90.51,0,163.9-73.381,163.9-163.908v-97.243v-201.807v-178.313V927.247v-14.765&#10;&#9;&#9;&#9;C2574.802,821.97,2501.412,748.574,2410.901,748.574z"/>
			<g>
				<linearGradient id="SVGID_2_" gradientUnits="userSpaceOnUse" x1="337.3447" y1="1213.6143" x2="2757.5916" y2="18.5784">
					<stop offset="0" style="stop-color:#FFF33B"/>
					<stop offset="0.0044" style="stop-color:#F9A624"/>
					<stop offset="0.4785" style="stop-color:#F7941E"/>
					<stop offset="0.5408" style="stop-color:#F58523"/>
					<stop offset="0.7223" style="stop-color:#EE5B31"/>
					<stop offset="0.7726" style="stop-color:#ED5533"/>
					<stop offset="1" style="stop-color:#E93E3A"/>
				</linearGradient>
				<path fill="url(#SVGID_2_)" d="M2071.625,240.218c-25.085,0.317-45.095,27.967-44.656,61.759l0.94,73.222&#10;&#9;&#9;&#9;&#9;c-199.969-6.19-415.513,30.852-627.326,116.561c-191.631,77.554-357.704,185.878-490.872,312.092l-52.08-50.761&#10;&#9;&#9;&#9;&#9;c-24.195-23.594-58.008-28.134-75.556-10.197c-17.478,17.992-12.101,51.657,12.137,75.292l173.216,168.856&#10;&#9;&#9;&#9;&#9;c24.208,23.604,58.012,28.139,75.548,10.156c17.515-17.966,12.112-51.671-12.094-75.253l-52.397-51.066&#10;&#9;&#9;&#9;&#9;c127.749-114.264,283.184-212.405,460.521-284.179c211.849-85.717,390.181-122.315,590.128-116.119l0.943,73.301&#10;&#9;&#9;&#9;&#9;c0.424,33.795,21.122,60.912,46.218,60.637c25.074-0.359,45.084-27.975,44.65-61.818l-3.083-241.882&#10;&#9;&#9;&#9;&#9;C2117.439,267.014,2096.741,239.899,2071.625,240.218z"/>
				<linearGradient id="SVGID_3_" gradientUnits="userSpaceOnUse" x1="388.8423" y1="1317.8691" x2="2809.063" y2="122.8461">
					<stop offset="0" style="stop-color:#FFF33B"/>
					<stop offset="0.0044" style="stop-color:#F9A624"/>
					<stop offset="0.4785" style="stop-color:#F7941E"/>
					<stop offset="0.5408" style="stop-color:#F58523"/>
					<stop offset="0.7223" style="stop-color:#EE5B31"/>
					<stop offset="0.7726" style="stop-color:#ED5533"/>
					<stop offset="1" style="stop-color:#E93E3A"/>
				</linearGradient>
				<path fill="url(#SVGID_3_)" d="M2170.463,295.927c-22.699,0.27-40.779,25.339-40.381,55.889l2.21,171.928&#10;&#9;&#9;&#9;&#9;c0.421,30.585,19.147,55.13,41.848,54.828c22.71-0.255,40.805-25.288,40.407-55.903l-2.223-171.88&#10;&#9;&#9;&#9;&#9;C2211.962,320.177,2193.21,295.629,2170.463,295.927z"/>
				<linearGradient id="SVGID_4_" gradientUnits="userSpaceOnUse" x1="406.1357" y1="1352.9561" x2="2826.3882" y2="157.9174">
					<stop offset="0" style="stop-color:#FFF33B"/>
					<stop offset="0.0044" style="stop-color:#F9A624"/>
					<stop offset="0.4785" style="stop-color:#F7941E"/>
					<stop offset="0.5408" style="stop-color:#F58523"/>
					<stop offset="0.7223" style="stop-color:#EE5B31"/>
					<stop offset="0.7726" style="stop-color:#ED5533"/>
					<stop offset="1" style="stop-color:#E93E3A"/>
				</linearGradient>
				<path fill="url(#SVGID_4_)" d="M2319.79,407.417l-19.39,0.256l-0.239-24.338c-0.3-28.224-17.498-50.847-38.409-50.577&#10;&#9;&#9;&#9;&#9;c-20.897,0.199-37.616,23.167-37.348,51.352L2225.52,489c0.29,28.15,17.477,50.855,38.38,50.612&#10;&#9;&#9;&#9;&#9;c20.871-0.177,37.631-23.233,37.365-51.345l-0.16-15.493l-0.096-9.007l19.59-0.308c10.384-0.146,18.668-12.821,18.479-28.327&#10;&#9;&#9;&#9;&#9;C2338.846,419.659,2330.2,407.263,2319.79,407.417z"/>
				<linearGradient id="SVGID_5_" gradientUnits="userSpaceOnUse" x1="334.749" y1="1208.3535" x2="2754.9829" y2="13.324">
					<stop offset="0" style="stop-color:#FFF33B"/>
					<stop offset="0.0044" style="stop-color:#F9A624"/>
					<stop offset="0.4785" style="stop-color:#F7941E"/>
					<stop offset="0.5408" style="stop-color:#F58523"/>
					<stop offset="0.7223" style="stop-color:#EE5B31"/>
					<stop offset="0.7726" style="stop-color:#ED5533"/>
					<stop offset="1" style="stop-color:#E93E3A"/>
				</linearGradient>
				<path fill="url(#SVGID_5_)" d="M749.267,1054.448l13.533-13.893l17.375,17.039c20.17,19.744,48.328,23.581,62.925,8.603&#10;&#9;&#9;&#9;&#9;c14.635-14.915,10.217-42.975-9.901-62.716L758.241,930.1c-20.115-19.699-48.322-23.604-62.93-8.646&#10;&#9;&#9;&#9;&#9;c-14.63,14.887-10.176,43.035,9.889,62.729l11.063,10.835l6.44,6.307l-13.636,14.067c-7.238,7.45-4.131,22.27,6.966,33.097&#10;&#9;&#9;&#9;&#9;C727.14,1059.267,742.016,1061.919,749.267,1054.448z"/>
				<linearGradient id="SVGID_6_" gradientUnits="userSpaceOnUse" x1="321.4355" y1="1181.3965" x2="2741.6846" y2="-13.6405">
					<stop offset="0" style="stop-color:#FFF33B"/>
					<stop offset="0.0044" style="stop-color:#F9A624"/>
					<stop offset="0.4785" style="stop-color:#F7941E"/>
					<stop offset="0.5408" style="stop-color:#F58523"/>
					<stop offset="0.7223" style="stop-color:#EE5B31"/>
					<stop offset="0.7726" style="stop-color:#ED5533"/>
					<stop offset="1" style="stop-color:#E93E3A"/>
				</linearGradient>
				<path fill="url(#SVGID_6_)" d="M799.599,839.606c-21.929-21.321-52.522-25.438-68.361-9.173&#10;&#9;&#9;&#9;&#9;c-15.883,16.24-10.975,46.732,10.95,68.102l123.115,119.966c21.9,21.389,52.516,25.486,68.394,9.193&#10;&#9;&#9;&#9;&#9;c15.859-16.247,10.919-46.753-10.967-68.076L799.599,839.606z"/>
			</g>
			<g>
				<path fill="#FFFFFF" d="M2119.039,1201.217c7.303,6.213,10.347,16.377,10.954,25.411c0,9.035-4.26,19.198-10.954,25.412&#10;&#9;&#9;&#9;&#9;l-156.382,144.555c-7.303,6.777-17.038,10.729-27.382,10.729c-20.688,0-38.944-16.939-38.944-36.139&#10;&#9;&#9;&#9;&#9;c0-9.033,4.259-19.2,10.953-25.41l128.393-119.146l-128.393-119.146c-7.302-6.21-10.953-15.81-10.953-25.41&#10;&#9;&#9;&#9;&#9;c0-19.199,18.255-36.139,38.944-36.139c10.344,0,20.08,3.952,27.382,10.729L2119.039,1201.217z"/>
			</g>
			<path fill="#FFFFFF" d="M2297.074,1376.38c0,17.088-14.928,30.943-33.344,30.943h-135.357c-18.416,0-33.344-13.855-33.344-30.943&#10;&#9;&#9;&#9;v-1.945c0-17.091,14.928-30.945,33.344-30.945h135.357c18.416,0,33.344,13.854,33.344,30.945V1376.38z"/>
		</g>
	</g>
</svg>