<?xml version="1.0" encoding="utf-8"?>
<svg viewBox="116.271 200.4469 186.8 17.7868" width="934" height="88.935"
	xmlns="http://www.w3.org/2000/svg">
	<path class="st0" d="M 147.671 200.595 C 152.471 199.695 157.071 202.995 157.971 207.795 C 158.871 212.595 155.571 217.195 150.771 218.095 C 146.871 218.795 142.971 216.795 141.171 213.195 C 139.071 208.795 140.971 203.495 145.371 201.395 C 146.171 200.995 146.871 200.795 147.671 200.595 M 148.371 203.795 C 146.771 204.095 145.371 204.995 144.571 206.395 C 143.671 207.895 143.471 209.795 144.071 211.495 C 144.571 212.795 145.571 213.895 146.871 214.495 C 148.171 215.095 149.771 215.195 151.071 214.695 C 152.371 214.195 153.371 213.295 154.071 212.195 C 154.871 210.795 154.971 209.095 154.471 207.595 C 154.071 206.295 153.171 205.195 152.071 204.495 C 150.971 203.795 149.671 203.595 148.371 203.795 M 275.271 200.695 C 276.871 200.395 278.571 200.395 280.171 200.895 C 281.571 201.295 282.771 202.295 283.471 203.695 C 283.871 204.495 283.971 205.295 283.971 206.195 L 280.571 206.195 C 280.571 205.395 280.171 204.595 279.471 204.095 C 278.571 203.495 277.471 203.295 276.471 203.495 C 275.671 203.495 274.871 203.895 274.371 204.595 C 273.871 205.395 273.971 206.395 274.771 206.995 C 274.771 206.995 274.771 206.995 274.771 206.995 C 275.571 207.395 276.371 207.595 277.271 207.695 C 278.471 207.895 279.671 208.195 280.771 208.595 C 281.771 208.995 282.571 209.695 283.171 210.595 C 284.071 212.395 283.771 214.595 282.471 216.095 C 281.271 217.295 279.671 217.995 277.971 218.095 C 276.271 218.295 274.471 217.995 272.871 217.395 C 271.671 216.795 270.671 215.795 270.171 214.595 C 269.871 213.795 269.671 212.995 269.671 212.195 L 273.071 212.195 C 273.271 213.995 274.771 215.295 276.571 215.195 C 277.571 215.395 278.671 215.195 279.471 214.595 C 280.271 213.995 280.471 212.795 279.871 211.995 C 279.271 211.495 278.571 211.195 277.771 211.195 C 276.671 210.995 275.671 210.795 274.571 210.495 C 273.671 210.295 272.771 209.895 272.071 209.295 C 271.471 208.795 271.071 208.195 270.871 207.495 C 270.471 206.195 270.571 204.895 271.171 203.695 C 272.071 201.995 273.571 200.995 275.271 200.695 M 116.271 200.695 L 119.671 200.695 L 121.271 214.095 C 121.371 213.895 121.371 213.695 121.471 213.495 L 125.371 200.595 L 128.271 200.595 L 132.271 213.595 C 132.371 213.795 132.371 213.995 132.471 214.095 C 133.071 209.595 133.571 205.095 134.171 200.595 L 137.571 200.595 C 136.671 206.295 135.871 211.995 134.971 217.795 C 133.471 217.795 131.971 217.795 130.571 217.795 L 127.171 206.695 C 127.071 206.395 126.971 206.095 126.871 205.795 C 125.771 209.795 124.571 213.795 123.371 217.795 L 118.871 217.795 C 118.071 212.195 117.171 206.395 116.271 200.695 M 162.171 200.695 L 170.471 200.695 C 172.071 200.695 173.671 201.395 174.771 202.595 C 175.471 203.495 175.871 204.595 175.771 205.795 C 175.571 207.495 174.571 208.995 172.971 209.595 C 173.471 209.595 173.871 209.795 174.271 210.095 C 174.671 210.495 174.871 210.995 175.071 211.495 C 175.771 213.595 176.471 215.695 177.171 217.895 L 173.471 217.895 C 172.971 216.195 172.371 214.495 171.871 212.895 C 171.771 212.495 171.571 212.095 171.271 211.795 C 170.971 211.595 170.671 211.395 170.271 211.495 L 165.571 211.495 C 165.571 213.695 165.571 215.795 165.571 217.995 L 162.171 217.995 L 162.171 200.695 M 165.571 203.795 C 165.571 205.395 165.571 206.995 165.571 208.595 L 168.871 208.595 C 169.671 208.695 170.471 208.495 171.171 208.195 C 171.771 207.895 172.171 207.295 172.271 206.695 C 172.471 205.895 172.271 205.195 171.771 204.495 C 171.171 203.995 170.371 203.695 169.571 203.695 C 168.271 203.795 166.871 203.795 165.571 203.795 M 181.571 200.795 L 184.971 200.795 L 184.971 214.995 L 192.671 214.995 L 192.671 217.995 L 181.471 217.995 L 181.571 200.795 M 196.871 200.795 L 203.871 200.795 C 208.571 200.895 212.371 204.895 212.171 209.595 C 212.071 212.295 210.771 214.795 208.571 216.395 C 207.171 217.395 205.571 217.995 203.771 217.995 L 196.771 217.995 C 196.871 212.195 196.871 206.495 196.871 200.795 M 200.271 203.795 C 200.271 207.595 200.271 211.295 200.271 215.095 C 201.471 215.095 202.571 215.095 203.771 215.095 C 205.071 215.095 206.271 214.595 207.271 213.795 C 208.271 212.795 208.871 211.495 208.971 210.095 C 209.171 208.495 208.771 206.795 207.771 205.495 C 206.771 204.395 205.371 203.695 203.871 203.695 L 200.271 203.795 M 216.671 200.695 L 229.471 200.695 C 229.471 201.695 229.471 202.695 229.471 203.695 L 220.071 203.695 C 220.071 205.195 220.071 206.595 220.071 208.095 L 228.271 208.095 C 228.271 209.095 228.271 210.095 228.271 210.995 L 220.071 210.995 C 220.071 213.295 220.071 215.595 220.071 217.895 L 216.571 217.895 L 216.671 200.695 M 234.071 200.795 L 246.771 200.795 C 246.771 201.795 246.771 202.795 246.771 203.795 L 242.171 203.795 C 242.171 207.595 242.171 211.295 242.171 215.095 C 243.671 215.095 245.271 215.095 246.771 215.095 C 246.771 216.095 246.771 217.095 246.771 218.095 C 242.571 218.095 238.371 218.095 234.071 218.095 L 234.071 215.095 C 235.571 215.095 237.171 215.095 238.671 215.095 C 238.671 211.295 238.671 207.595 238.671 203.795 L 234.071 203.795 L 234.071 200.795 M 251.771 200.795 L 260.171 200.795 C 261.871 200.795 263.571 201.595 264.571 202.995 C 265.571 204.495 265.571 206.495 264.571 208.095 C 264.071 208.795 263.371 209.395 262.571 209.695 C 263.171 209.695 263.771 210.095 264.171 210.595 C 264.571 211.395 264.871 212.295 265.071 213.195 C 265.571 214.795 266.071 216.395 266.671 218.095 L 262.971 218.095 C 262.471 216.395 261.871 214.695 261.371 212.995 C 261.271 212.495 260.971 212.095 260.571 211.795 C 260.171 211.595 259.771 211.595 259.371 211.595 L 255.171 211.595 C 255.171 213.795 255.171 215.895 255.171 218.095 L 251.771 218.095 L 251.771 200.795 M 255.071 203.795 C 255.071 205.395 255.071 206.995 255.071 208.595 C 256.071 208.595 257.071 208.595 258.071 208.595 C 258.971 208.695 259.871 208.595 260.671 208.295 C 261.271 207.995 261.671 207.495 261.771 206.895 C 261.971 206.095 261.871 205.295 261.271 204.595 C 260.671 204.095 259.871 203.795 259.071 203.795 C 257.771 203.795 256.471 203.795 255.071 203.795 M 287.471 200.795 L 303.071 200.795 L 303.071 203.795 L 296.971 203.795 C 296.971 208.495 296.971 213.295 296.971 217.995 C 295.871 217.995 294.671 217.995 293.571 217.995 C 293.571 213.295 293.571 208.495 293.571 203.795 C 291.571 203.795 289.571 203.795 287.471 203.795 C 287.471 202.795 287.471 201.795 287.471 200.795 Z" style="fill: rgb(250, 28, 69);" transform="matrix(1.0000000000000002, 0, 0, 1.0000000000000002, 0, 0)"/>
</svg>