<?xml version="1.0" encoding="utf-8"?>
<svg viewBox="70.8293 88.5559 255.9997 256.3219" width="256" height="256.322"
	xmlns="http://www.w3.org/2000/svg">
	<defs>
		<linearGradient id="IconifyId1813088fe1fbc01fb466" x1="-.828%" x2="57.636%" y1="7.652%" y2="78.411%">
			<stop offset="0" stop-color="#41D1FF"/>
			<stop offset="1" stop-color="#BD34FE"/>
		</linearGradient>
		<linearGradient id="IconifyId1813088fe1fbc01fb467" x1="43.376%" x2="50.316%" y1="2.242%" y2="89.03%">
			<stop offset="0" stop-color="#FFEA83"/>
			<stop offset="0.0833" stop-color="#FFDD35"/>
			<stop offset="1" stop-color="#FFA800"/>
		</linearGradient>
	</defs>
	<path fill="url(#IconifyId1813088fe1fbc01fb466)" d="M 325.982 126.494 L 205.726 341.532 C 203.243 345.972 196.864 345.998 194.344 341.58 L 71.704 126.514 C 68.958 121.7 73.075 115.868 78.531 116.844 L 198.916 138.361 C 199.684 138.499 200.47 138.497 201.238 138.357 L 319.105 116.874 C 324.543 115.883 328.679 121.67 325.982 126.494 L 325.982 126.494 Z" transform="matrix(1.0000000000000002, 0, 0, 1.0000000000000002, 0, 0)"/>
	<path fill="url(#IconifyId1813088fe1fbc01fb467)" d="M 256.261 88.619 L 167.269 106.057 C 165.806 106.344 164.723 107.584 164.635 109.071 L 159.161 201.527 C 159.032 203.705 161.032 205.396 163.158 204.905 L 187.935 199.187 C 190.253 198.652 192.348 200.694 191.871 203.025 L 184.51 239.072 C 184.015 241.498 186.292 243.572 188.661 242.852 L 203.965 238.203 C 206.337 237.483 208.617 239.563 208.115 241.991 L 196.417 298.612 C 195.685 302.154 200.396 304.085 202.36 301.049 L 203.673 299.021 L 276.189 154.301 C 277.404 151.878 275.309 149.115 272.649 149.629 L 247.144 154.551 C 244.748 155.013 242.709 152.781 243.385 150.437 L 260.031 92.732 C 260.708 90.382 258.661 88.149 256.262 88.619 L 256.261 88.619 Z" transform="matrix(1.0000000000000002, 0, 0, 1.0000000000000002, 0, 0)"/>
</svg>