<?xml version="1.0" encoding="utf-8"?>
<svg viewBox="-586.7808 -445.3438 1478.2019 1195.1108" width="1478.202" height="1195.111"
	xmlns="http://www.w3.org/2000/svg">
	<g transform="matrix(0.5690000057220459, 0, 0, 0.5690000057220459, -387.3300344048448, -528.078026536614)">
		<linearGradient id="a" gradientUnits="userSpaceOnUse" x1="-2901.952" y1="923.573" x2="-2061.249" y2="1420.331" gradientTransform="matrix(.1234 0 0 -.1234 1158.33 1550.273)">
			<stop offset="0" stop-color="#909ca9"/>
			<stop offset="1" stop-color="#ededee"/>
		</linearGradient>
		<path fill="url(#a)" d="M1410.773 814.195l-286.9 93.683-249.599 110.161-69.829 18.435c-17.784 16.916-36.431 34.049-56.599 51.397-22.119 19.082-42.72 36.433-58.553 49.008-17.564 13.88-43.587 39.902-56.814 56.38-19.735 24.721-35.348 50.96-42.071 71.13-11.928 36.433-6.07 73.297 16.916 107.346 29.492 43.369 88.261 87.606 156.785 117.749 34.916 15.4 93.683 35.132 137.92 46.19 73.512 18.651 215.771 38.819 294.054 41.857 15.828.65 37.082.65 37.947 0 1.737-1.088 13.881-24.289 27.979-53.129 48.142-98.238 82.838-190.402 101.703-269.119 11.276-47.706 20.166-111.246 26.019-186.492 1.521-21.036 2.169-91.514.868-115.37-1.953-39.033-5.423-70.692-10.84-101.703-.868-4.555-1.088-8.676-.652-8.892.865-.65 3.467-1.517 38.815-11.712l-7.153-16.912v-.005h.004zm-65.49 38.386c2.602 0 9.539 66.573 11.273 108.646.436 8.89.216 14.745-.216 14.745-1.733 0-36.649-20.599-61.583-36.212-21.687-13.663-62.888-40.988-69.393-46.192-2.173-1.517-1.957-1.733 15.828-7.807 30.14-10.194 101.706-33.18 104.091-33.18zm-146.161 48.143c1.953 0 6.937 2.816 18.865 10.191 44.671 27.974 105.393 61.805 131.415 73.083 8.022 3.469 8.887 2.166-9.542 14.746-39.468 26.889-88.697 53.344-148.983 80.018-10.624 4.771-19.514 8.456-19.73 8.456-.432 0 .865-5.418 2.598-11.925 14.53-54.001 22.772-108.647 23.208-152.452.216-21.687.216-21.687 2.169-22.334-.436.217-.22.217 0 .217zm-30.142 11.492c1.297 1.299.432 49.877-1.304 63.104-3.903 31.662-9.975 61.153-19.947 94.335-2.386 8.018-4.558 14.745-4.987 15.177-.872 1.083-30.581-27.975-40.339-39.251-16.916-19.518-30.141-39.035-39.9-58.117-4.988-9.759-12.793-28.84-12.144-29.492 3.469-2.385 117.753-46.622 118.621-45.756zm-141.826 55.731c.216 0 .432 0 .652.216.432.434 1.953 3.905 3.254 7.807 6.937 18.867 22.548 46.624 35.997 64.407 14.746 19.518 34.048 40.334 50.091 53.996 5.207 4.337 9.975 8.456 10.624 9.108 1.304 1.302 1.737 1.083-33.612 14.53-40.981 15.613-85.656 31.226-136.835 47.706a6825.474 6825.474 0 0 0-36.643 11.928c-1.955.652-1.303-.434 4.335-9.323 25.371-39.686 63.97-117.536 85.657-172.618 3.687-9.542 7.373-19.082 8.025-21.251.868-3.038 1.95-4.121 4.768-5.64 1.518-.43 3.038-.866 3.687-.866zm-43.367 17.999c.649.436-10.411 23.637-21.254 44.889-21.036 40.985-44.022 81.323-74.815 130.331-5.204 8.456-10.19 16.265-10.842 17.132-1.083 1.519-1.519 1.083-4.988-5.638-7.373-14.53-13.447-33.181-16.699-50.313-3.254-16.916-2.602-46.406 1.086-64.621 2.816-13.444 2.602-13.227 9.107-16.481 27.757-14.095 117.537-56.166 118.405-55.299zm374.073 15.182v9.107c0 48.359-5.204 114.716-12.797 163.077-1.301 8.456-2.389 15.393-2.602 15.613 0 0-6.288-1.733-13.661-3.905-32.527-10.193-67.875-25.156-99.754-42.718-21.038-11.494-51.612-30.363-50.743-31.231.213-.215 9.323-4.986 19.947-10.625 42.509-22.118 83.274-45.972 118.622-69.609 13.229-8.892 33.176-23.202 37.518-27.107l3.47-2.602zm-537.802 64.185c.867 0 .65 1.735-.651 9.542-.868 5.64-1.951 16.049-2.382 23.202-1.739 31.662 3.469 55.084 19.082 87.177 4.337 8.892 7.809 16.265 7.589 16.48-1.519 1.303-145.074 43.375-190.183 55.734-13.444 3.685-25.152 6.939-26.024 7.153-1.515.436-1.733.22-1.083-3.47 4.987-31.875 29.276-73.512 63.104-108.644 22.554-23.419 40.554-37.08 71.347-54.648 22.119-12.575 56.165-31.439 58.767-32.309.002-.217.218-.217.434-.217zm338.295 60.503c.216-.216 5.42 2.605 11.708 6.29 46.408 26.891 111.03 51.83 166.108 64.623l4.991 1.086-6.941 3.899c-28.84 16.049-123.606 55.515-220.538 91.732-14.098 5.202-27.975 10.409-30.581 11.492-2.602 1.083-4.988 1.735-4.988 1.519 0-.22 3.906-7.809 8.89-17.132 27.107-50.744 54.433-112.547 68.311-155.485 1.739-4.12 2.82-7.805 3.04-8.024zm-34.48 11.278c.22.221-1.517 4.771-3.687 9.975-18.865 45.756-43.59 95.636-75.249 151.583-8.022 14.314-14.746 25.808-14.966 25.808-.213 0-6.721-3.906-14.527-8.676-45.976-28.192-86.743-62.888-113.414-96.501l-3.905-4.771 19.732-5.422c70.696-19.298 130.762-40.116 190.4-65.704 8.459-3.471 15.4-6.292 15.616-6.292zm214.253 74.815s.217.217 0 0c.216 4.988-10.844 49.661-19.953 81.969-7.589 27.107-14.098 48.361-26.022 85.874-5.204 16.485-9.755 30.143-9.975 30.143-.216 0-1.517-.216-2.818-.647-64.405-11.714-122.089-27.977-176.303-49.661-15.182-6.074-36.866-15.833-38.167-16.916-.432-.438 12.58-6.506 29.06-13.663 98.669-43.154 201.024-92.164 236.153-113.196 4.119-2.603 7.373-3.903 8.025-3.903zm-494.646 16.916c.434.432-27.107 40.118-65.709 94.114-13.444 18.867-29.057 40.985-34.911 49.225-5.856 8.241-14.746 21.253-19.734 29.06l-9.112 14.096-9.759-8.24c-11.494-9.544-31.442-29.927-40.333-41.204-18.651-23.201-31.226-47.706-36.214-70.04-2.386-10.411-2.386-15.618-.22-16.265 3.252-.867 61.153-14.53 115.37-27.11 30.143-6.937 65.054-15.177 77.632-18.213 12.579-3.041 22.774-5.423 22.99-5.423zm27.756 10.626l6.937 7.806c31.231 34.914 63.108 60.724 101.708 83.272 6.941 3.906 12.144 7.373 11.708 7.594-1.514 1.083-134.016 48.136-195.385 69.389-34.478 12.143-62.888 21.901-63.102 21.901-.216 0-2.169-1.299-4.341-2.818l-3.901-2.82 6.288-9.106c20.383-29.493 45.976-61.803 101.707-129.028l38.381-46.19zm173.053 123.822c.213-.215 9.755 3.252 21.464 7.594 28.195 10.624 50.527 17.345 80.456 24.936 36.866 9.326 90.211 18.434 121.657 21.035 4.771.432 7.373.868 6.505 1.519-1.521.868-33.395 11.494-56.816 18.867-37.302 11.708-151.149 45.32-243.962 71.995-17.132 4.987-31.879 9.108-32.746 9.323-2.166.436-9.325-1.519-9.325-2.386 0-.431 5.204-7.153 11.494-14.527 31.225-37.3 62.238-78.935 88.044-118.403 7.154-10.846 13.229-19.736 13.229-19.953zm-38.17 1.087c.216.216-15.179 24.936-42.066 67.439-11.496 17.999-24.291 38.383-28.846 45.54-4.337 6.939-10.842 17.784-14.527 23.854l-6.29 11.061-3.252-.868c-7.809-2.169-62.672-21.471-77.202-27.325-18-7.157-36.649-15.829-50.529-23.202-17.346-9.326-39.03-23.206-37.297-23.637.433-.216 30.143-8.243 65.922-17.999 94.984-25.809 147.678-40.77 182.161-51.612 6.29-1.952 11.71-3.471 11.926-3.251zm269.985 63.318h.216c.868 2.171-34.26 99.755-47.06 130.547-2.815 6.939-3.896 8.677-5.417 8.456-3.687-.213-54.646-7.37-85.66-11.925-53.994-8.24-144.641-24.073-167.409-29.275l-5.204-1.083 32.307-7.378c69.396-15.613 102.791-24.069 136.619-34.478 42.722-13.011 85.011-29.276 127.729-49.225 6.722-3.037 12.361-5.422 13.879-5.639z"/>
		<linearGradient id="b" gradientUnits="userSpaceOnUse" x1="-2882.7" y1="10288.81" x2="-2206.249" y2="10288.81" gradientTransform="matrix(.1234 0 0 -.1234 1158.33 1550.273)">
			<stop offset="0" stop-color="#939fab"/>
			<stop offset="1" stop-color="#dcdee1"/>
		</linearGradient>
		<path fill="url(#b)" d="M1114.983 145.414c-4.771-.647-81.757 27.11-131.415 47.275-67.01 27.327-119.052 53.351-151.148 75.899-11.925 8.461-26.891 23.422-29.273 29.276-.867 2.169-1.303 4.771-1.303 7.373l29.06 27.541 69.175 22.119 164.594 29.493 188.228 32.312 1.953-16.264c-.649 0-1.085-.216-1.73-.216l-24.728-3.905-4.984-8.89c-25.59-45.107-53.781-101.056-70.261-138.789-12.793-29.276-24.938-63.102-31.662-87.391-3.687-14.746-4.119-15.613-6.501-15.829v-.005h-.005zm-3.474 11.063h.223c.213.214 1.081 6.29 1.95 13.442 3.683 30.364 10.411 59.635 21.035 91.297 8.022 23.855 8.022 22.555-1.301 19.734-22.119-6.07-121.221-23.202-193-33.177-11.494-1.519-21.253-3.036-21.253-3.252-.867-.867 51.827-28.41 75.031-39.25 29.709-13.665 111.246-47.711 117.315-48.794zm-209.047 97.15l8.461 2.816c45.97 15.616 161.551 37.736 225.31 42.94 7.154.651 13.229 1.303 13.442 1.303.216.216-5.852 3.469-13.661 7.154-30.79 15.397-64.621 34.264-88.042 48.794-6.937 4.335-13.229 7.807-14.094 7.807-.868 0-5.42-.868-10.191-1.519l-8.674-1.303-21.683-21.253c-38.167-37.08-68.094-65.704-79.588-76.549l-11.28-10.19zm-8.671 6.721l30.576 38.168c16.696 21.035 33.611 41.635 37.301 46.187 3.683 4.557 6.721 8.245 6.505 8.461-.868.65-44.236-7.809-67.226-13.011-23.637-5.423-33.395-8.025-47.924-12.577l-11.928-3.905v-3.038c.216-14.53 18.651-36.214 49.877-58.331l2.819-1.954zm259.791 52.046c.869 0 1.95 1.951 4.552 7.806 7.373 16.263 30.364 60.07 35.997 68.526 1.74 2.822 4.771 3.038-25.802-1.95-73.512-11.93-97.152-15.829-97.152-16.263 0-.216 2.169-1.735 4.988-3.254 22.771-12.575 45.756-28.624 66.142-45.756 4.988-4.121 9.542-8.024 10.407-8.676.216-.433.652-.649.868-.433z"/>
		<radialGradient id="c" cx="-14217.448" cy="7277.705" r="898.12" gradientTransform="matrix(-.1185 -.0178 -.036 .237 -198.955 -1314.415)" gradientUnits="userSpaceOnUse">
			<stop offset="0" stop-color="#ee352c"/>
			<stop offset="1" stop-color="#a91d22"/>
		</radialGradient>
		<path fill="url(#c)" d="M804.66 294.828s-4.768 7.593-.215 18.87c2.822 6.937 11.061 15.393 20.384 24.069 0 0 96.5 94.114 108.211 107.561 53.344 61.585 76.549 122.305 78.718 206.012 1.301 53.78-8.894 101.054-34.264 155.919-45.106 98.453-140.307 207.098-287.117 327.67l21.472-7.157c13.878-10.411 32.745-21.467 76.982-45.756 102.137-55.952 217.071-107.346 358.028-160.258 202.971-76.335 536.715-165.681 726.676-194.736l19.737-3.038-3.038-4.771c-17.345-26.891-29.276-43.587-43.59-61.369-41.633-51.612-92.157-93.463-153.964-128.161-85.007-47.489-194.956-84.571-334.173-112.112-26.239-5.207-83.923-15.181-130.763-22.337-99.321-15.393-163.51-26.021-234.203-38.165-25.37-4.339-63.323-10.843-88.478-16.263-13.011-2.822-37.947-8.676-57.464-15.398-15.613-6.075-38.168-12.147-42.939-30.58zm55.952 54.216c.214-.214 3.683 1.083 8.24 2.602 8.24 2.816 18.865 6.07 31.446 9.542a1599.47 1599.47 0 0 0 28.624 7.589c13.011 3.251 23.852 6.288 24.068 6.288 1.521 1.519 23.424 71.558 30.797 98.449 2.815 10.195 4.988 18.867 4.771 18.867-.223.22-2.605-3.469-5.423-8.456-25.373-44.673-65.491-89.995-111.899-126.428-6.069-4.333-10.624-8.237-10.624-8.453zm106.692 29.492c1.085 0 5.856.651 11.708 1.951 36.866 8.24 103.008 20.818 145.293 27.975 7.157 1.083 12.797 2.387 12.797 2.818 0 .436-2.605 1.951-5.859 3.688-7.153 3.685-35.997 20.815-45.536 27.322-24.073 16.047-45.756 33.395-61.371 49.008-6.288 6.29-11.712 11.494-11.712 11.494s-1.297-3.685-2.386-8.242c-7.802-30.143-24.069-74.816-38.815-106.258-2.386-4.986-4.339-9.541-4.339-9.973 0 .433 0 .217.22.217zm187.795 35.781c1.301.432 3.47 7.806 7.806 24.069 8.025 31.446 11.712 66.576 10.411 99.321-.436 9.108-.868 17.564-1.304 18.651l-.649 2.166-11.276-3.685c-23.204-7.373-60.935-18.435-93.245-27.541-18.436-4.988-33.395-9.542-33.395-9.975 0-1.303 26.891-28.192 38.383-38.383 21.898-19.303 81.316-65.275 83.269-64.623zm14.963 2.166c.652-.647 89.779 14.746 130.331 22.554 30.145 5.854 73.948 14.963 76.549 16.049 1.301.432-3.254 3.034-17.784 9.539-57.248 25.808-99.754 49.008-142.036 77.202-11.06 7.373-20.386 13.444-20.602 13.444-.216 0-.433-6.287-.433-13.878 0-41.201-8.241-82.838-23.424-117.968-1.517-3.47-2.818-6.722-2.601-6.942zm230.516 45.542c.652.65-2.169 18.217-4.771 28.624-7.806 32.312-28.84 80.24-54.643 125.343-4.558 8.024-8.677 14.53-9.114 14.746-.429.216-6.285-3.038-13.009-6.941-25.154-14.746-53.778-28.624-85.007-41.637-8.671-3.685-16.263-6.723-16.48-7.153-1.521-1.303 68.308-47.493 105.174-69.612 29.276-17.781 76.982-44.239 77.85-43.37zm16.48 2.601c1.953 0 41.421 10.844 62.019 16.916 50.963 15.181 109.512 36.648 147.679 53.996l15.828 7.159-11.056 2.6c-93.245 21.467-173.049 46.192-250.034 77.418-6.289 2.602-11.928 4.771-12.357 4.771-.436 0 1.733-4.987 4.552-11.061 23.204-49.225 38.167-100.62 41.85-144.427.221-4.121.867-7.372 1.519-7.372zm-392.938 90.213c.649-.652 30.793 6.506 47.057 11.056 24.721 6.942 77.198 24.505 77.198 25.808 0 .216-5.853 5.204-12.79 11.278-28.408 23.637-55.734 48.572-88.481 80.234-9.759 9.328-17.997 16.917-18.429 16.917-.436 0-.649-1.304-.436-3.038 4.987-36.433 3.906-83.272-3.034-130.763-.653-6.074-1.302-11.276-1.085-11.492zm633.433.652c.429.431-13.881 22.984-22.988 35.777-13.009 18.649-32.098 43.375-75.252 97.588-22.765 28.622-48.358 60.936-56.812 71.778-8.678 10.842-15.831 19.948-16.051 19.948-.216 0-3.031-3.901-6.069-8.671-24.289-36.433-53.349-68.311-87.829-96.935-6.505-5.423-13.658-11.278-16.044-13.013-2.386-1.734-4.339-3.469-4.339-3.685 0-.649 36.862-16.483 64.841-27.757 49.01-19.952 115.794-43.805 165.892-59.203 26.24-8.239 54.215-16.263 54.651-15.827zm16.696 4.334c.865-.215 6.072 2.387 12.361 6.07 52.697 30.143 104.305 68.962 145.077 108.864 11.492 11.278 39.9 40.77 39.464 40.986 0 0-9.975.867-21.683 1.733-91.296 6.942-208.178 26.239-320.511 53.345-7.589 1.733-14.31 3.252-14.746 3.252-.429 0 8.025-8.456 18.653-18.647 65.922-63.538 96.067-103.656 131.628-175.22 4.986-10.623 9.325-19.731 9.757-20.383-.216 0-.216 0 0 0zm-482.936 49.446c3.038.647 31.229 13.88 52.48 24.503 19.517 9.755 48.794 25.372 50.311 26.671.216.216-10.195 5.638-22.984 11.928-40.772 20.384-75.684 39.682-112.118 61.802-10.408 6.29-19.082 11.497-19.298 11.497-.868 0-.652-.872 5.204-11.497 19.518-35.561 35.129-78.065 44.023-119.486.864-3.252 1.733-5.418 2.382-5.418zm-28.192 5.202c.652.652-6.721 27.323-11.273 41.853-8.894 27.541-23.856 62.02-38.383 88.043-3.474 6.069-8.677 14.961-11.496 19.948l-5.42 8.674-12.144-11.707c-14.094-13.663-25.59-22.12-40.333-29.712-5.859-3.033-10.411-5.638-10.411-6.069 0-1.735 37.082-35.347 65.49-59.635 20.383-17.566 63.321-52.045 63.97-51.395zm172.404 70.913l10.627 6.937c24.282 15.833 52.906 36.866 74.813 55.298 12.357 10.19 36.21 31.662 40.985 36.866l2.598 2.822-17.561 4.986c-99.321 27.538-176.087 52.043-265.649 85.007-9.975 3.685-18.433 6.721-19.085 6.721-1.297 0-2.385 1.083 19.954-19.519 57.251-52.691 107.992-110.812 145.726-167.411l7.592-11.707zm-45.324 11.276c.432.432-29.276 42.284-47.06 65.922-21.251 28.192-58.985 75.465-85.007 106.256-10.84 12.797-20.163 23.422-20.599 23.64-.652.216-.868-3.036-.868-8.024 0-26.242-6.721-54.216-18.433-78.068-4.988-9.975-5.856-12.361-4.768-13.444 4.119-3.688 67.223-39.686 107.123-61.153 26.89-14.312 68.956-35.563 69.612-35.129zm-274.107 67.225c.652 0 5.64 2.6 11.279 5.638 13.878 7.589 26.239 16.046 37.298 25.156.432.432-5.204 4.988-12.577 10.406-20.602 14.746-51.828 38.385-70.041 52.915-19.088 15.18-19.734 15.613-17.568 12.361 14.314-21.903 21.467-34.264 29.06-50.093 6.721-14.094 13.442-30.793 18.213-45.323 1.734-6.289 3.904-11.06 4.336-11.06zm73.083 57.248c1.081-.214 2.386 1.735 8.238 10.411 12.361 18.429 21.903 43.154 24.292 63.104l.429 4.339-29.705 11.494c-53.133 20.599-102.139 40.985-135.322 56.162-9.322 4.339-25.587 12.144-36.211 17.352-10.627 5.418-19.301 9.539-19.301 9.323s6.721-5.204 14.961-11.278c64.844-47.055 121.007-98.669 163.076-150.279 4.555-5.423 8.677-10.411 9.107-10.627l.436-.001zm-33.612 8.242c.868.867-23.853 28.84-40.768 45.971-41.853 42.723-83.273 76.12-134.669 108.649-6.505 4.119-12.359 7.804-13.011 8.24-1.519.867.432-1.303 22.986-25.808 14.314-15.397 25.155-28.408 37.516-44.453 8.24-10.624 9.759-12.143 21.688-20.604 31.878-22.987 105.39-72.864 106.258-71.995z"/>
	</g>
	<path fill="#231F1F" d="M -321.034 454.759 C -323.31 454.759 -325.587 454.976 -327.843 454.976 C -373.818 457.426 -404.826 477.659 -422.956 517.171 C -438.462 552.906 -436.769 599.617 -422.782 635.571 C -406.517 670.702 -380.235 689.243 -336.366 696.246 C -327.084 697.766 -320.86 702.862 -302.883 723.852 L -280.763 749.767 L -240.645 749.767 L -267.321 722.875 C -282.067 708.13 -293.994 695.291 -293.994 694.163 C -293.994 693.036 -288.353 690.564 -281.525 688.483 C -259.015 681.671 -240.322 664.281 -227.246 637.629 C -216.663 616.227 -215.144 609.611 -213.627 582.983 C -209.658 503.723 -251.447 454.17 -321.036 454.736 L -321.034 454.759 L -321.034 454.759 Z M -285.861 662.029 C -305.378 671.482 -333.718 673.369 -352.217 666.582 C -371.344 659.557 -389.863 639.693 -398.192 617.205 C -407.451 592.614 -406.129 547.249 -395.546 526.819 C -378.523 494.291 -356.012 479.329 -323.116 479.329 C -274.324 479.329 -246.567 509.213 -242.945 565.377 C -240.082 612.262 -255.783 647.435 -285.84 662.009 L -285.861 662.029 L -285.861 662.029 Z M 407.164 522.461 C 390.336 522.461 377.455 529.272 368.779 542.692 L 361.97 553.319 L 361.97 525.691 L 332.847 525.691 L 332.847 691.369 L 361.951 691.369 L 361.951 638.413 C 361.951 589.989 362.555 584.329 369.322 571.078 C 378.648 552.906 394.693 543.844 410.201 548.181 L 420.609 551.217 L 420.609 522.505 L 407.164 522.505 L 407.164 522.461 L 407.164 522.461 Z M 236.066 520.942 C 230.361 520.942 224.31 521.702 218.285 523.026 C 179.314 533.216 157.347 570.515 158.691 608.899 C 158.691 641.038 164.935 657.105 180.443 673.956 C 212.213 700.021 240.945 702.102 279.718 688.117 C 286.333 685.298 293.532 682.045 293.532 682.045 L 293.532 655.98 L 279.718 663.136 C 248.339 676.797 224.702 676.797 205.769 660.706 C 193.693 648.41 188.378 633.664 185.929 616.838 L 303.355 616.838 L 303.355 594.499 C 303.355 548.96 275.945 520.205 236.042 520.942 L 236.066 520.942 Z M 188.574 593.589 C 188.574 593.589 192.912 565.182 209.002 554.035 C 216.746 548.569 225.635 545.925 234.33 545.925 C 243.049 545.925 251.744 548.743 258.922 554.231 C 273.67 565.572 276.141 593.374 276.141 593.374 L 188.575 593.374 L 188.575 593.589 L 188.574 593.589 Z M -513.537 563.708 C -545.11 544.58 -559.119 530.787 -557.406 514.523 C -552.506 469.526 -496.903 475.75 -466.111 492.774 L -465.892 462.502 C -465.892 462.502 -482.916 455.129 -507.313 454.738 C -544.742 454.174 -568.943 466.447 -580.283 491.429 C -596.939 528.294 -582.191 556.094 -528.887 587.106 C -498.962 604.518 -485.735 619.634 -485.735 636.114 C -485.735 670.161 -526.785 682.045 -569.136 660.684 C -577.852 656.347 -585.226 652.725 -585.616 652.725 C -587.135 662.376 -586.352 685.47 -586.352 685.47 C -586.352 685.47 -573.34 690.936 -553.825 694.706 C -505.425 704.356 -461.38 681.652 -457.217 644.787 C -453.595 610.178 -466.11 592.026 -513.535 563.683 L -513.537 563.708 L -513.537 563.708 Z M 664.917 520.553 C 659.235 520.553 653.206 521.333 646.917 522.656 C 607.993 532.848 586.067 570.148 587.563 608.532 C 587.563 640.627 593.788 656.543 609.292 673.37 C 641.063 699.459 669.796 701.561 708.765 687.554 C 715.357 684.736 722.535 681.528 722.535 681.528 L 722.535 655.419 L 708.744 662.616 C 677.301 676.235 653.662 676.235 634.797 660.145 C 622.652 647.871 617.383 633.298 614.932 616.274 L 732.164 616.274 L 732.164 593.938 C 732.164 548.617 704.752 519.839 664.851 520.599 L 664.917 520.553 L 664.917 520.553 Z M 617.425 593.199 C 617.425 593.199 621.806 564.834 637.874 553.47 C 645.595 547.985 654.485 545.338 663.181 545.338 C 671.855 545.338 680.595 548.157 687.775 553.665 C 702.521 565.007 704.994 593.003 704.994 593.003 L 617.449 593.003 L 617.425 593.199 L 617.425 593.199 Z M 83.616 564.076 C 52.043 544.993 38.076 531.156 39.768 514.891 C 44.668 469.871 100.272 476.118 131.064 493.142 L 131.282 462.87 C 131.282 462.87 114.258 455.496 89.861 455.148 C 52.432 454.585 28.231 466.859 16.87 491.84 C 0.237 528.704 15.178 556.506 68.307 587.517 C 98.191 604.91 111.418 619.829 111.418 636.309 C 111.418 670.356 70.389 682.435 28.037 660.878 C 19.363 656.541 11.991 652.962 11.557 652.962 C 10.038 662.611 10.821 685.708 10.821 685.708 C 10.821 685.708 23.679 690.978 43.131 694.945 C 91.576 704.617 135.641 681.933 139.784 645.068 C 143.384 610.631 130.893 592.481 83.617 564.116 L 83.617 564.076 L 83.616 564.076 Z M 836.037 522.071 C 819.209 522.071 806.178 528.9 797.654 542.325 L 790.843 552.907 L 790.843 525.324 L 761.72 525.324 L 761.72 690.957 L 790.822 690.957 L 790.822 638.003 C 790.822 589.6 791.406 583.918 798.197 570.69 C 807.521 552.54 823.566 543.455 839.072 547.812 L 849.48 550.847 L 849.48 522.072 L 836.037 522.072 L 836.037 522.071 Z M -147.984 563.121 L -147.984 457.598 L -177.345 457.598 L -177.345 691.326 L -53.867 691.326 L -53.867 663.722 L -147.983 663.722 L -147.983 563.121 L -147.984 563.121 Z M 531.031 596.017 L 506.83 658.992 L 483.56 595.67 L 459.923 525.497 L 429.868 525.497 C 449.343 580.709 470.526 636.873 491.888 691.326 C 501.148 691.542 510.429 691.326 519.687 691.326 L 552.369 609.268 L 585.656 525.518 L 556.924 525.518 C 556.924 525.518 544.236 558.784 531.01 596.039 L 531.031 596.017 L 531.031 596.017 Z M -80.326 393.908 C -75.598 393.908 -71.652 392.392 -68.399 389.139 C -65.191 385.928 -63.499 382.155 -63.499 377.428 C -63.499 372.7 -65.191 368.753 -68.399 365.717 C -71.652 362.682 -75.404 361.162 -80.11 361.162 C -84.879 361.162 -88.827 362.682 -92.037 365.89 C -95.289 369.101 -96.764 373.048 -96.764 377.602 C -96.764 382.373 -95.245 386.318 -92.037 389.313 C -89 392.347 -85.053 393.866 -80.326 393.866 L -80.326 393.908 L -80.326 393.908 Z M -90.734 367.019 C -87.916 364.201 -84.489 362.898 -80.109 362.898 C -75.988 362.898 -72.561 364.201 -69.698 367.019 C -66.879 369.838 -65.361 373.264 -65.361 377.428 C -65.361 381.591 -66.879 385.192 -69.698 388.01 C -72.56 390.827 -75.988 392.173 -80.109 392.173 C -84.294 392.173 -87.699 390.872 -90.517 388.01 C -93.336 385.192 -94.854 381.591 -94.854 377.428 C -94.854 373.264 -93.553 369.839 -90.734 367.019 Z M -83.731 378.947 L -81.823 378.947 C -80.477 378.947 -79.155 380.247 -78.028 382.72 L -75.749 387.836 L -72.172 387.836 L -74.99 382.153 C -76.139 379.878 -77.266 378.555 -78.59 378.184 C -76.92 377.794 -75.598 377.231 -74.643 376.102 C -73.691 375.128 -73.343 373.804 -73.343 372.307 C -73.343 370.573 -73.885 369.273 -75.033 368.318 C -76.335 367.234 -78.417 366.649 -81.107 366.649 L -87.133 366.649 L -87.133 387.836 L -84.098 387.836 L -84.098 378.945 L -83.731 378.947 L -83.731 378.947 Z M -83.731 369.101 L -81.084 369.101 C -79.176 369.101 -77.831 369.491 -77.094 370.054 C -76.378 370.618 -76.183 371.357 -76.183 372.7 C -76.183 375.15 -77.703 376.301 -80.52 376.301 L -83.772 376.301 L -83.772 369.101 L -83.731 369.101 L -83.731 369.101 Z M -568.749 377.059 C -568.749 369.686 -568.965 364.201 -569.139 360.969 L -568.965 360.969 C -568.207 364.783 -567.274 367.626 -566.515 369.512 L -538.325 432.487 L -533.597 432.487 L -505.407 368.949 C -504.646 367.216 -503.887 364.612 -502.955 360.99 L -502.739 360.99 C -503.302 367.28 -503.497 372.744 -503.497 377.102 L -503.497 432.683 L -493.849 432.683 L -493.849 350.061 L -505.949 350.061 L -531.862 407.527 C -532.817 409.803 -534.14 413.21 -535.831 417.72 L -536.223 417.72 C -536.786 415.486 -538.109 412.081 -539.995 407.917 L -565.325 349.864 L -578.183 349.864 L -578.183 432.485 L -568.902 432.485 L -568.902 377.1 L -568.749 377.059 L -568.749 377.059 Z M -472.704 377.213 L -464.375 377.213 L -464.375 428.671 L -472.704 428.671 L -472.704 377.213 L -472.704 377.213 Z M -468.54 358.345 C -466.804 358.345 -465.33 357.758 -464.203 356.611 C -463.053 355.482 -462.293 354.008 -462.293 352.274 C -462.293 350.582 -462.858 349.063 -464.18 347.937 C -465.351 346.787 -466.848 346.2 -468.561 346.2 C -470.251 346.2 -471.769 346.787 -472.899 347.937 C -474.045 349.063 -474.806 350.582 -474.806 352.274 C -474.806 354.161 -474.22 355.482 -472.899 356.611 C -471.595 357.758 -470.252 358.345 -468.561 358.345 L -468.54 358.345 Z M -405 429.8 L -405 420.734 C -409.555 424.139 -414.456 425.832 -419.53 425.832 C -425.6 425.832 -430.525 423.751 -434.125 419.762 C -437.702 415.815 -439.61 410.326 -439.61 403.496 C -439.61 396.34 -437.702 390.656 -433.756 386.319 C -429.961 382.156 -425.037 380.074 -419.008 380.074 C -414.086 380.074 -409.361 381.594 -404.999 384.631 L -404.999 374.981 C -408.967 372.899 -413.499 371.944 -418.618 371.944 C -428.074 371.944 -435.445 374.981 -440.953 380.838 C -446.419 386.692 -449.238 394.651 -449.238 404.258 C -449.238 412.801 -446.788 419.98 -441.69 425.467 C -436.378 431.104 -429.588 433.967 -421.262 433.967 C -414.824 433.789 -409.555 432.444 -405 429.8 L -405 429.8 Z M -381.169 402.367 C -381.169 395.579 -379.651 390.094 -376.832 386.318 C -374.185 382.915 -370.977 381.202 -367.182 381.202 C -363.972 381.202 -361.696 381.787 -360.027 383.11 L -360.027 373.264 C -361.327 372.701 -363.214 372.506 -365.664 372.506 C -369.069 372.506 -372.103 373.652 -374.771 375.759 C -377.59 377.99 -379.845 381.397 -381.168 385.734 L -381.384 385.734 L -381.384 373.654 L -390.817 373.654 L -390.817 432.639 L -381.363 432.639 L -381.363 402.367 L -381.169 402.367 L -381.169 402.367 Z M -326.89 433.81 C -317.998 433.81 -310.842 430.947 -305.53 425.267 C -300.24 419.626 -297.594 412.038 -297.594 402.581 C -297.594 392.934 -300.021 385.56 -304.966 380.071 C -309.866 374.588 -316.677 371.939 -325.569 371.939 C -334.461 371.939 -341.617 374.586 -346.929 379.703 C -352.61 385.344 -355.603 393.302 -355.603 403.516 C -355.603 412.407 -353.174 419.781 -348.055 425.267 C -342.765 430.947 -335.76 433.788 -326.89 433.788 L -326.89 433.81 L -326.89 433.81 Z M -340.335 385.755 C -336.735 381.96 -332.006 380.072 -326.153 380.072 C -320.079 380.072 -315.526 381.96 -312.143 385.755 C -308.739 389.724 -307.046 395.385 -307.046 402.952 C -307.046 410.15 -308.565 415.811 -311.775 419.606 C -314.983 423.575 -319.711 425.677 -325.958 425.677 C -332.029 425.677 -336.735 423.573 -340.335 419.606 C -343.912 415.616 -345.626 410.15 -345.626 402.952 C -345.994 395.796 -344.107 389.942 -340.335 385.755 Z M -256.194 428.671 C -252.595 425.463 -250.685 421.516 -250.685 416.569 C -250.685 412.232 -252.205 408.633 -255.023 405.792 C -257.323 403.517 -260.877 401.455 -266.017 399.373 C -270.573 397.467 -273.391 395.773 -274.91 394.45 C -276.427 392.933 -277.36 391.048 -277.36 388.379 C -277.36 385.929 -276.405 384.042 -274.539 382.524 C -272.631 381.008 -270.202 380.271 -266.949 380.271 C -261.853 380.271 -257.495 381.614 -253.506 384.456 L -253.506 375 C -257.322 373.094 -261.464 372.183 -266.192 372.183 C -272.263 372.183 -277.381 373.854 -281.156 377.082 C -285.125 380.294 -287.01 384.457 -287.01 389.356 C -287.01 393.693 -285.71 397.294 -283.239 399.938 C -281.157 402.194 -277.598 404.494 -272.656 406.552 C -267.927 408.635 -264.718 410.52 -263.006 412.037 C -261.315 413.557 -260.556 415.442 -260.556 417.678 C -260.556 423.184 -264.328 426.027 -271.702 426.027 C -277.384 426.027 -282.478 424.161 -287.035 420.389 L -287.035 430.578 C -282.914 433.053 -277.969 434.179 -272.505 434.179 C -265.5 433.811 -260.015 432.098 -256.241 428.693 L -256.194 428.671 L -256.194 428.671 Z M -211.175 371.941 C -220.068 371.941 -227.223 374.588 -232.536 379.705 C -238.174 385.346 -241.21 393.304 -241.21 403.518 C -241.21 412.409 -238.758 419.783 -233.663 425.269 C -228.35 430.949 -221.368 433.79 -212.476 433.79 C -203.369 433.79 -196.428 430.929 -191.116 425.245 C -185.803 419.608 -183.158 412.018 -183.158 402.562 C -183.158 392.912 -185.63 385.54 -190.532 380.053 C -195.647 374.566 -202.459 371.92 -211.133 371.92 L -211.175 371.941 L -211.175 371.941 Z M -192.83 402.953 C -192.83 410.151 -194.348 415.812 -197.557 419.607 C -200.767 423.576 -205.495 425.678 -211.741 425.678 C -217.815 425.678 -222.519 423.574 -226.12 419.607 C -229.697 415.617 -231.41 410.151 -231.41 402.953 C -231.41 395.363 -229.522 389.509 -225.727 385.56 C -222.151 381.787 -217.421 379.878 -211.545 379.878 C -205.691 379.878 -200.984 381.785 -197.581 385.56 C -194.544 389.723 -192.852 395.384 -192.852 402.953 L -192.83 402.953 L -192.83 402.953 Z M -167.283 432.466 L -157.85 432.466 L -157.85 381.398 L -144.037 381.398 L -144.037 373.46 L -157.851 373.46 L -157.851 364.352 C -157.851 356.07 -154.643 351.906 -148.006 351.906 C -145.772 351.906 -143.495 352.469 -141.803 353.424 L -141.803 344.903 C -143.495 344.144 -145.772 343.971 -148.615 343.971 C -153.71 343.971 -157.873 345.49 -161.279 348.698 C -165.248 352.471 -167.35 357.372 -167.35 364.01 L -167.35 373.682 L -177.328 373.682 L -177.328 381.618 L -167.35 381.618 L -167.35 432.494 L -167.283 432.466 L -167.283 432.466 Z M -128.533 416.375 C -128.533 427.913 -123.435 433.789 -113.027 433.789 C -109.253 433.789 -106.413 433.183 -104.136 431.838 L -104.136 423.728 C -105.87 425.03 -107.931 425.638 -110.207 425.638 C -113.415 425.638 -115.671 424.876 -116.995 423.163 C -118.34 421.474 -119.098 418.609 -119.098 414.662 L -119.098 381.376 L -104.137 381.376 L -104.137 373.438 L -119.098 373.438 L -119.098 356.048 C -122.351 357.175 -125.538 358.13 -128.554 359.082 L -128.554 373.437 L -138.746 373.437 L -138.746 381.375 L -128.554 381.375 L -128.554 416.354 L -128.533 416.375 L -128.533 416.375 Z M 886.347 525.105 C 883.138 522.071 879.343 520.552 874.638 520.552 C 869.868 520.552 865.919 522.071 862.71 525.323 C 859.501 528.511 857.981 532.478 857.981 537.034 C 857.981 541.762 859.501 545.709 862.686 548.743 C 865.897 551.779 869.842 553.299 874.614 553.299 C 879.319 553.299 883.288 551.779 886.542 548.57 C 889.73 545.317 891.421 541.566 891.421 536.861 C 891.247 532.09 889.534 528.142 886.325 525.107 L 886.347 525.105 L 886.347 525.105 Z M 884.83 547.443 C 882.01 550.261 878.584 551.562 874.42 551.562 C 870.301 551.562 866.875 550.261 864.012 547.443 C 861.194 544.58 859.674 541.002 859.674 536.816 C 859.674 532.695 860.975 529.271 863.838 526.408 C 866.656 523.591 870.063 522.287 874.42 522.287 C 878.541 522.287 881.969 523.591 884.83 526.408 C 887.648 529.271 889.166 532.695 889.166 536.816 C 889.166 541.198 887.865 544.58 884.83 547.443 L 884.83 547.443 Z M 876.328 537.792 C 878.019 537.402 879.365 536.643 880.297 535.711 C 881.252 534.734 881.6 533.41 881.6 531.896 C 881.6 530.204 881.057 528.859 879.909 527.927 C 878.608 526.842 876.505 526.256 873.839 526.256 L 867.81 526.256 L 867.81 547.42 L 870.847 547.42 L 870.847 538.529 L 872.732 538.529 C 874.035 538.529 875.336 539.829 876.505 542.302 L 878.759 547.398 L 882.361 547.398 L 879.543 541.715 C 878.566 539.243 877.438 538.114 876.291 537.745 L 876.328 537.792 L 876.328 537.792 Z M 874.246 535.885 L 870.994 535.885 L 870.994 528.73 L 873.662 528.73 C 875.549 528.73 876.871 529.075 877.631 529.662 C 878.389 530.225 878.563 530.963 878.563 532.308 C 878.563 534.758 877.045 535.887 874.227 535.887 L 874.246 535.885 Z M 346.662 371.01 L 349.308 371.01 L 349.308 349.823 L 356.31 349.823 L 356.31 347.177 L 339.658 347.177 L 339.658 349.823 L 346.664 349.823 L 346.664 371.01 L 346.662 371.01 L 346.662 371.01 Z M 362.709 355.093 C 362.709 353.031 362.709 351.34 362.557 350.388 C 362.731 351.514 363.121 352.275 363.295 352.838 L 371.428 371.01 L 372.729 371.01 L 380.881 352.663 C 381.1 352.1 381.274 351.362 381.641 350.388 C 381.467 352.275 381.467 353.789 381.467 354.941 L 381.467 370.989 L 384.287 370.989 L 384.287 347.177 L 380.881 347.177 L 373.51 363.615 C 373.336 364.202 372.748 365.349 372.381 366.652 L 372.164 366.652 C 372.012 365.891 371.623 365.133 371.08 363.834 L 363.707 347.179 L 359.891 347.179 L 359.891 371.033 L 362.557 371.033 L 362.557 355.116 L 362.709 355.093 L 362.709 355.093 Z" transform="matrix(1.0000000000000002, 0, 0, 1.0000000000000002, 2.842170943040401e-14, 7.105427357601002e-15)"/>
</svg>